<svg width="26" height="23" viewBox="0 0 26 23" fill="none" xmlns="http://www.w3.org/2000/svg">
<g clip-path="url(#clip0_12328_8858)">
<path d="M23.1631 13L1.41895 13C0.590518 13 -0.0810547 12.3284 -0.0810547 11.5C-0.0810547 10.6716 0.590518 10 1.41895 10L23.1631 10C23.9915 10 24.6631 10.6716 24.6631 11.5C24.6631 12.3284 23.9915 13 23.1631 13Z" fill="#575757"/>
<path d="M13.5838 2.4914C13.002 1.90181 13.008 0.952213 13.5975 0.370302C14.1871 -0.211529 15.1367 -0.20549 15.7186 0.383974L26.6883 11.5002L15.7186 22.6164C15.1367 23.2059 14.1871 23.2119 13.5975 22.6301C13.008 22.0482 13.002 21.0986 13.5838 20.509L22.4734 11.5002L13.5838 2.4914Z" fill="#575757"/>
</g>
<defs>
<clipPath id="clip0_12328_8858">
<rect width="23" height="26" fill="white" transform="translate(0 23) rotate(-90)"/>
</clipPath>
</defs>
</svg>
