<svg width="26" height="26" viewBox="0 0 26 26" fill="none" xmlns="http://www.w3.org/2000/svg">
<path d="M0.848349 0.848349C0.284389 1.41231 -1.04463e-06 2.10159 -1.00924e-06 2.91138L-1.27261e-07 23.0886C-9.16529e-08 23.9032 0.28439 24.5877 0.84835 25.1516C1.41231 25.7156 2.09677 26 2.91138 26L23.0886 26C23.9032 26 24.5877 25.7156 25.1517 25.1516C25.7156 24.5877 26 23.8984 26 23.0886L26 2.91138C26 2.09677 25.7156 1.41231 25.1517 0.848348C24.5877 0.284388 23.8984 -1.04463e-06 23.0886 -1.00924e-06L2.91138 -1.27261e-07C2.09677 -9.16529e-08 1.41231 0.284389 0.848349 0.848349ZM15.0293 4.70448L22.4379 12.2143C22.6548 12.4312 22.7608 12.7156 22.7608 13C22.7608 13.2844 22.6548 13.5688 22.4379 13.7857L15.0293 21.2955C14.5955 21.7341 13.8869 21.739 13.4483 21.3052C13.0096 20.8713 13.0048 20.1628 13.4386 19.7241L18.9674 14.1231L4.35743 14.1231C3.74045 14.1231 3.23915 13.6218 3.23915 13.0048C3.23915 12.3878 3.74045 11.8865 4.35743 11.8865L18.9626 11.8865L13.4338 6.2855C13 5.84686 13.0048 5.1383 13.4435 4.70448C13.8821 4.27067 14.5907 4.27549 15.0245 4.71413L15.0293 4.70448Z" fill="#575757"/>
</svg>
