<svg width="26" height="26" viewBox="0 0 26 26" fill="none" xmlns="http://www.w3.org/2000/svg">
<g clip-path="url(#clip0_12328_8916)">
<path d="M25.1517 0.84835C24.5877 0.28439 23.8984 0 23.0886 0H2.91138C2.09677 0 1.41231 0.28439 0.84835 0.84835C0.28439 1.41231 0 2.09677 0 2.91138V23.0886C0 23.9032 0.28439 24.5877 0.84835 25.1517C1.41231 25.7156 2.10159 26 2.91138 26H23.0886C23.9032 26 24.5877 25.7156 25.1517 25.1517C25.7156 24.5877 26 23.8984 26 23.0886V2.91138C26 2.09677 25.7156 1.41231 25.1517 0.84835ZM21.2955 15.0293L13.7857 22.4379C13.5688 22.6548 13.2844 22.7608 13 22.7608C12.7156 22.7608 12.4312 22.6548 12.2143 22.4379L4.70449 15.0293C4.26585 14.5955 4.26103 13.8869 4.69485 13.4483C5.12866 13.0096 5.83723 13.0048 6.27586 13.4386L11.8769 18.9674V4.35743C11.8769 3.74045 12.3782 3.23915 12.9952 3.23915C13.6122 3.23915 14.1135 3.74045 14.1135 4.35743V18.9626L19.7145 13.4338C20.1531 13 20.8617 13.0048 21.2955 13.4435C21.7293 13.8821 21.7245 14.5907 21.2859 15.0245L21.2955 15.0293Z" fill="#575757"/>
</g>
<defs>
<clipPath id="clip0_12328_8916">
<rect width="26" height="26" fill="white"/>
</clipPath>
</defs>
</svg>
