<svg width="26" height="26" viewBox="0 0 26 26" fill="none" xmlns="http://www.w3.org/2000/svg">
<g clip-path="url(#clip0_12328_8922)">
<path d="M25.1517 0.84835C24.5877 0.28439 23.8984 0 23.0886 0H2.91138C2.09677 0 1.41231 0.28439 0.84835 0.84835C0.28439 1.41231 0 2.09677 0 2.91138V23.0886C0 23.9032 0.28439 24.5877 0.84835 25.1517C1.41231 25.7156 2.10159 26 2.91138 26H23.0886C23.9032 26 24.5877 25.7156 25.1517 25.1517C25.7156 24.5877 26 23.8984 26 23.0886V2.91138C26 2.09677 25.7156 1.41231 25.1517 0.84835ZM17.1164 19.4687C17.4538 19.8109 17.4538 20.3652 17.1068 20.7026C16.9381 20.8713 16.7164 20.9533 16.4946 20.9533C16.2729 20.9533 16.0415 20.8665 15.8728 20.693L8.88357 13.6122C8.54616 13.2699 8.54616 12.7253 8.88357 12.383L15.8728 5.30219C16.2102 4.95996 16.7646 4.95514 17.1068 5.29255C17.449 5.62996 17.4538 6.18428 17.1164 6.52651L10.7345 12.9952L17.1164 19.4639V19.4687Z" fill="#575757"/>
</g>
<defs>
<clipPath id="clip0_12328_8922">
<rect width="26" height="26" fill="white"/>
</clipPath>
</defs>
</svg>
