<svg width="26" height="26" viewBox="0 0 26 26" fill="none" xmlns="http://www.w3.org/2000/svg">
<path d="M25.1516 25.1517C25.7156 24.5877 26 23.8984 26 23.0886L26 2.91138C26 2.09677 25.7156 1.41231 25.1516 0.84835C24.5877 0.28439 23.9032 -9.16529e-08 23.0886 -1.27261e-07L2.91138 -1.00924e-06C2.09677 -1.04484e-06 1.41231 0.284389 0.848349 0.848349C0.284389 1.41231 -9.18636e-08 2.10159 -1.27261e-07 2.91138L-1.00924e-06 23.0886C-1.04484e-06 23.9032 0.284388 24.5877 0.848348 25.1517C1.41231 25.7156 2.10159 26 2.91138 26L23.0886 26C23.9032 26 24.5877 25.7156 25.1516 25.1517ZM10.9707 21.2955L3.5621 13.7857C3.3452 13.5688 3.23915 13.2844 3.23915 13C3.23915 12.7156 3.3452 12.4312 3.5621 12.2143L10.9707 4.70449C11.4045 4.26585 12.1131 4.26103 12.5517 4.69485C12.9904 5.12866 12.9952 5.83723 12.5614 6.27586L7.03263 11.8769L21.6426 11.8769C22.2595 11.8769 22.7608 12.3782 22.7608 12.9952C22.7608 13.6122 22.2595 14.1135 21.6426 14.1135L7.03745 14.1135L12.5662 19.7145C13 20.1531 12.9952 20.8617 12.5565 21.2955C12.1179 21.7293 11.4093 21.7245 10.9755 21.2859L10.9707 21.2955Z" fill="#575757"/>
</svg>
