<svg width="26" height="23" viewBox="0 0 26 23" fill="none" xmlns="http://www.w3.org/2000/svg">
<g clip-path="url(#clip0_12328_8851)">
<path d="M2.83692 10L24.5811 10C25.4095 10 26.0811 10.6716 26.0811 11.5C26.0811 12.3284 25.4095 13 24.5811 13L2.83691 13C2.00849 13 1.33691 12.3284 1.33692 11.5C1.33692 10.6716 2.00849 10 2.83692 10Z" fill="#575757"/>
<path d="M12.4162 20.5086C12.998 21.0982 12.992 22.0478 12.4025 22.6297C11.8129 23.2115 10.8633 23.2055 10.2814 22.616L-0.68829 11.4998L10.2814 0.383605C10.8633 -0.205861 11.8129 -0.211899 12.4025 0.369933C12.992 0.951843 12.998 1.90144 12.4162 2.49103L3.52655 11.4998L12.4162 20.5086Z" fill="#575757"/>
</g>
<defs>
<clipPath id="clip0_12328_8851">
<rect width="23" height="26" fill="white" transform="translate(26 1.1365e-06) rotate(90)"/>
</clipPath>
</defs>
</svg>
