<svg width="23" height="26" viewBox="0 0 23 26" fill="none" xmlns="http://www.w3.org/2000/svg">
<g clip-path="url(#clip0_12328_8865)">
<path d="M13 2.83594L13 24.5801C13 25.4085 12.3284 26.0801 11.5 26.0801C10.6716 26.0801 10 25.4085 10 24.5801L10 2.83594C10 2.00751 10.6716 1.33594 11.5 1.33594C12.3284 1.33594 13 2.00751 13 2.83594Z" fill="#575757"/>
<path d="M2.4914 12.4152C1.90181 12.9971 0.952213 12.991 0.370302 12.4016C-0.211529 11.812 -0.20549 10.8624 0.383974 10.2805L11.5002 -0.689266L22.6164 10.2805C23.2059 10.8624 23.2119 11.812 22.6301 12.4016C22.0482 12.991 21.0986 12.9971 20.509 12.4152L11.5002 3.52558L2.4914 12.4152Z" fill="#575757"/>
</g>
<defs>
<clipPath id="clip0_12328_8865">
<rect width="23" height="26" fill="white" transform="translate(23 26) rotate(-180)"/>
</clipPath>
</defs>
</svg>
