<svg width="26" height="26" viewBox="0 0 26 26" fill="none" xmlns="http://www.w3.org/2000/svg">
<path d="M0.848349 25.1516C1.41231 25.7156 2.10159 26 2.91138 26L23.0886 26C23.9032 26 24.5877 25.7156 25.1517 25.1516C25.7156 24.5877 26 23.9032 26 23.0886L26 2.91138C26 2.09677 25.7156 1.41231 25.1517 0.848349C24.5877 0.284389 23.8984 -1.83727e-07 23.0886 -2.54521e-07L2.91138 -2.01847e-06C2.09678 -2.08969e-06 1.41231 0.284387 0.848351 0.848346C0.284392 1.41231 2.08927e-06 2.10159 2.01847e-06 2.91138L2.54521e-07 23.0886C1.83306e-07 23.9032 0.28439 24.5877 0.848349 25.1516ZM4.70449 10.9707L12.2143 3.5621C12.4312 3.3452 12.7156 3.23915 13 3.23915C13.2844 3.23915 13.5688 3.3452 13.7857 3.5621L21.2955 10.9707C21.7342 11.4045 21.739 12.1131 21.3052 12.5517C20.8713 12.9904 20.1628 12.9952 19.7241 12.5614L14.1231 7.03263L14.1231 21.6426C14.1231 22.2595 13.6218 22.7608 13.0048 22.7608C12.3878 22.7608 11.8865 22.2595 11.8865 21.6426L11.8865 7.03745L6.2855 12.5662C5.84687 13 5.1383 12.9952 4.70449 12.5565C4.27067 12.1179 4.27549 11.4093 4.71413 10.9755L4.70449 10.9707Z" fill="#575757"/>
</svg>
