<svg width="26" height="26" viewBox="0 0 26 26" fill="none" xmlns="http://www.w3.org/2000/svg">
<path d="M25.1517 0.84835C24.5877 0.28439 23.8984 0 23.0886 0H2.91138C2.09677 0 1.41231 0.28439 0.84835 0.84835C0.28439 1.41231 0 2.09677 0 2.91138V23.0886C0 23.9032 0.28439 24.5877 0.84835 25.1517C1.41231 25.7156 2.10159 26 2.91138 26H23.0886C23.9032 26 24.5877 25.7156 25.1517 25.1517C25.7156 24.5877 26 23.8984 26 23.0886V2.91138C26 2.09677 25.7156 1.41231 25.1517 0.84835ZM6.69522 14.6533C5.7842 14.6533 5.0419 13.9158 5.0419 13C5.0419 12.0842 5.77938 11.3467 6.69522 11.3467C7.61105 11.3467 8.34854 12.0842 8.34854 13C8.34854 13.9158 7.61105 14.6533 6.69522 14.6533ZM13 14.6533C12.089 14.6533 11.3467 13.9158 11.3467 13C11.3467 12.0842 12.0842 11.3467 13 11.3467C13.9158 11.3467 14.6533 12.0842 14.6533 13C14.6533 13.9158 13.9158 14.6533 13 14.6533ZM19.3048 14.6533C18.3938 14.6533 17.6515 13.9158 17.6515 13C17.6515 12.0842 18.389 11.3467 19.3048 11.3467C20.2206 11.3467 20.9581 12.0842 20.9581 13C20.9581 13.9158 20.2206 14.6533 19.3048 14.6533Z" fill="#575757"/>
</svg>
