<svg width="23" height="26" viewBox="0 0 23 26" fill="none" xmlns="http://www.w3.org/2000/svg">
<g clip-path="url(#clip0_12328_8872)">
<path d="M10 23.1621L10 1.41797C10 0.589542 10.6716 -0.0820313 11.5 -0.0820313C12.3284 -0.0820313 13 0.589542 13 1.41797L13 23.1621C13 23.9905 12.3284 24.6621 11.5 24.6621C10.6716 24.6621 10 23.9905 10 23.1621Z" fill="#575757"/>
<path d="M20.5086 13.5828C21.0982 13.001 22.0478 13.007 22.6297 13.5965C23.2115 14.1861 23.2055 15.1357 22.616 15.7176L11.4998 26.6873L0.383604 15.7176C-0.205862 15.1357 -0.2119 14.1861 0.369932 13.5965C0.951842 13.007 1.90144 13.001 2.49103 13.5828L11.4998 22.4725L20.5086 13.5828Z" fill="#575757"/>
</g>
<defs>
<clipPath id="clip0_12328_8872">
<rect width="23" height="26" fill="white"/>
</clipPath>
</defs>
</svg>
