<svg width="26" height="6" viewBox="0 0 26 6" fill="none" xmlns="http://www.w3.org/2000/svg">
<path d="M2.69811 5.39623C4.18824 5.39623 5.39623 4.18824 5.39623 2.69811C5.39623 1.20799 4.18824 0 2.69811 0C1.20799 0 0 1.20799 0 2.69811C0 4.18824 1.20799 5.39623 2.69811 5.39623Z" fill="#575757"/>
<path d="M12.9999 5.39623C14.49 5.39623 15.698 4.18824 15.698 2.69811C15.698 1.20799 14.49 0 12.9999 0C11.5097 0 10.3018 1.20799 10.3018 2.69811C10.3018 4.18824 11.5097 5.39623 12.9999 5.39623Z" fill="#575757"/>
<path d="M23.3016 5.39623C24.7918 5.39623 25.9997 4.18824 25.9997 2.69811C25.9997 1.20799 24.7918 0 23.3016 0C21.8115 0 20.6035 1.20799 20.6035 2.69811C20.6035 4.18824 21.8115 5.39623 23.3016 5.39623Z" fill="#575757"/>
</svg>
