<svg width="26" height="15" viewBox="0 0 26 15" fill="none" xmlns="http://www.w3.org/2000/svg">
<g clip-path="url(#clip0_12328_8761)">
<path d="M18.345 9.78386C18.345 6.90352 15.9509 4.56833 12.9978 4.56833C10.0447 4.56833 7.65054 6.90352 7.65054 9.78386C7.65054 12.6642 10.0447 14.9994 12.9978 14.9994C15.9509 14.9994 18.345 12.6642 18.345 9.78386Z" fill="#575757"/>
<path d="M25.9643 9.86269C24.4868 4.10691 19.1652 0 12.9978 0C6.86669 0 1.52132 4.0678 0.0294284 9.8682C-0.0996474 10.3877 0.222416 10.912 0.75313 11.0459C1.28948 11.1809 1.83586 10.8668 1.97434 10.3437C2.99567 6.39077 6.15865 3.30325 10.2108 2.30341C16.298 0.802436 22.4805 4.39843 24.0194 10.3357C24.0225 10.3504 24.0263 10.3651 24.0306 10.3797C24.1773 10.9004 24.7287 11.2072 25.2625 11.0642C25.7963 10.9212 26.1109 10.3834 25.9643 9.86269Z" fill="#575757"/>
</g>
<defs>
<clipPath id="clip0_12328_8761">
<rect width="26" height="15" fill="white"/>
</clipPath>
</defs>
</svg>
