<svg width="26" height="26" viewBox="0 0 26 26" fill="none" xmlns="http://www.w3.org/2000/svg">
<g clip-path="url(#clip0_12328_8726)">
<path d="M6.8776 26C5.10742 26 3.42523 25.3288 2.14185 24.1097C0.809474 22.8442 0.0497733 21.1362 0.00235781 19.2997C-0.0450576 17.4652 0.624027 15.7219 1.88686 14.3901L5.99936 10.2776C6.18955 10.109 6.434 10.0163 6.68846 10.0163C6.94293 10.0163 7.19265 10.1111 7.38389 10.2834C7.59041 10.4693 7.71211 10.7243 7.72633 11.0014C7.74056 11.2754 7.64889 11.5388 7.46766 11.7438L3.35042 15.861L3.94311 16.4605L3.34304 15.8689C2.51011 16.7603 2.05123 17.9236 2.05071 19.1437C2.05018 20.3639 2.508 21.5271 3.34041 22.4196C4.24499 23.39 5.5252 23.9464 6.85231 23.9464C8.07089 23.9464 9.23309 23.4886 10.125 22.6567L10.1356 22.6467L14.2496 18.5326L14.2518 18.5347C14.443 18.3619 14.6906 18.2671 14.9482 18.2671C15.2059 18.2671 15.4524 18.3619 15.6437 18.5342C16.0672 18.9156 16.1041 19.5689 15.7274 19.9951L11.6102 24.1123C10.3268 25.3299 8.64725 25.9995 6.87813 25.9995L6.8776 26ZM19.066 16.2208C18.7715 16.2208 18.4896 16.0954 18.2926 15.8768C18.1066 15.6703 18.0123 15.4042 18.0271 15.1266C18.0418 14.8489 18.1635 14.5945 18.3695 14.4085L18.378 14.4011L22.5115 10.2676L21.9173 9.66959L22.5194 10.2591C23.3524 9.36771 23.8112 8.20445 23.8118 6.9843C23.8123 5.76414 23.3545 4.60088 22.5221 3.70842C21.6175 2.73798 20.3373 2.18164 19.0102 2.18164C17.7916 2.18164 16.6294 2.63946 15.7374 3.47134L15.7269 3.48135L11.5907 7.61808L11.5854 7.6244C11.5612 7.65127 11.5354 7.67656 11.509 7.7008C11.3178 7.87307 11.0707 7.9679 10.8136 7.9679C10.5191 7.9679 10.2372 7.84252 10.0402 7.62388C9.65667 7.19767 9.69144 6.53912 10.1171 6.15558L10.1256 6.1482L14.2591 2.01463C15.5583 0.715973 17.2842 0.00105368 19.1197 0C22.9135 0 25.9981 3.08358 26.0002 6.87419V6.88525C26.0024 8.69441 25.2664 10.4609 23.9809 11.7332L19.8568 15.8573L19.8489 15.8647L19.8373 15.8779C19.8131 15.9047 19.7878 15.93 19.7614 15.9537C19.5702 16.126 19.3231 16.2208 19.066 16.2208Z" fill="#575757"/>
<path d="M8.80199 18.2359C8.52488 18.2359 8.26409 18.1279 8.06811 17.9324C7.87212 17.7364 7.76465 17.4762 7.76465 17.1985C7.76465 16.9209 7.87265 16.6606 8.06811 16.4646L16.3105 8.22225C16.5007 8.05366 16.7451 7.96094 16.9996 7.96094C17.2541 7.96094 17.5038 8.05577 17.695 8.22804C17.9015 8.41402 18.0232 8.66901 18.0375 8.94613C18.0517 9.22008 17.96 9.4835 17.7788 9.68844L9.53535 17.9319C9.33937 18.1279 9.07911 18.2353 8.80147 18.2353L8.80199 18.2359Z" fill="#575757"/>
</g>
<defs>
<clipPath id="clip0_12328_8726">
<rect width="26" height="26" fill="white"/>
</clipPath>
</defs>
</svg>
