<svg width="26" height="26" viewBox="0 0 26 26" fill="none" xmlns="http://www.w3.org/2000/svg">
<g clip-path="url(#clip0_12328_8713)">
<path d="M24.7305 6.80063L19.2014 1.26818C18.3882 0.456354 17.2866 0 16.1376 0H2.90333C1.3 0 0 1.3 0 2.90333V23.0967C0 24.7 1.3 26 2.90333 26H23.0967C24.7 26 26 24.7 26 23.0967V9.8624C26 8.71339 25.543 7.61245 24.7305 6.79995V6.80063ZM17.5818 2.1213C17.7321 2.22016 17.8736 2.33458 18.0036 2.46526L23.5334 7.99771C23.6634 8.12771 23.7778 8.26854 23.8767 8.41885H17.5811V2.1213H17.5818ZM24.3073 23.0967C24.3073 23.7643 23.7643 24.3073 23.0967 24.3073H2.90333C2.23573 24.3073 1.69271 23.7643 1.69271 23.0967V2.90333C1.69271 2.23573 2.23573 1.69271 2.90333 1.69271H15.8891V8.66667C15.8891 9.46427 16.5357 10.1109 17.3333 10.1109H24.3073V23.0967Z" fill="#575757"/>
</g>
<defs>
<clipPath id="clip0_12328_8713">
<rect width="26" height="26" fill="white"/>
</clipPath>
</defs>
</svg>
