<svg width="26" height="26" viewBox="0 0 26 26" fill="none" xmlns="http://www.w3.org/2000/svg">
<path d="M25.9995 23.0887C25.9995 23.9012 25.7172 24.5898 25.153 25.154C24.5888 25.7182 23.9002 26.0005 23.0877 26.0005H2.91082C2.09832 26.0005 1.40973 25.7182 0.845547 25.154C0.281367 24.5898 -0.000976562 23.9012 -0.000976562 23.0887V2.91129C-0.000976562 2.09879 0.281367 1.4102 0.845547 0.846016C1.41023 0.282344 2.09832 0 2.91082 0H23.0877C23.9002 0 24.5888 0.282344 25.153 0.846523C25.7172 1.4107 25.9995 2.0993 25.9995 2.9118V23.0887ZM7.53699 15.6655L3.54152 20.8493C3.28406 21.1829 3.52223 21.6673 3.94371 21.6673H22.0726C22.4911 21.6673 22.7297 21.1895 22.4789 20.8548L16.9889 13.5347C16.7873 13.2661 16.3856 13.2636 16.1805 13.5291L11.9621 19.0018C11.7645 19.2583 11.3806 19.2669 11.1719 19.0191L8.32766 15.6482C8.11895 15.4009 7.73453 15.4091 7.53699 15.6655Z" fill="#575757"/>
</svg>
