<svg width="26" height="26" viewBox="0 0 26 26" fill="none" xmlns="http://www.w3.org/2000/svg">
<path d="M23.0883 1.67622C23.456 1.67622 23.719 1.78235 23.9683 2.03168C24.2176 2.281 24.3238 2.54404 24.3238 2.91168V23.0878C24.3238 23.4555 24.2176 23.7185 23.9683 23.9678C23.719 24.2171 23.456 24.3233 23.0883 24.3233H2.91168C2.54404 24.3233 2.281 24.2171 2.03168 23.9678C1.78235 23.7185 1.67622 23.4555 1.67622 23.0878V2.91168C1.67622 2.54404 1.78235 2.281 2.03168 2.03168C2.281 1.78235 2.54404 1.67622 2.91168 1.67622H23.0878M23.0883 0.000507804H2.91168C2.09922 0.000507804 1.41065 0.28284 0.84649 0.846998C0.282333 1.41116 0 2.09972 0 2.91219V23.0883C0 23.9008 0.282333 24.5894 0.84649 25.1535C1.41065 25.7177 2.09922 26 2.91168 26H23.0878C23.9003 26 24.5888 25.7177 25.153 25.1535C25.7172 24.5894 25.9995 23.9008 25.9995 23.0883V2.91168C25.9995 2.09922 25.7172 1.41065 25.153 0.84649C24.5888 0.282333 23.9003 0 23.0878 0L23.0883 0.000507804Z" fill="#575757"/>
<path d="M7.53744 15.6659L3.54213 20.8494C3.28468 21.183 3.52283 21.6675 3.9443 21.6675H22.0725C22.4909 21.6675 22.7296 21.1896 22.4787 20.855L16.989 13.5352C16.7874 13.2665 16.3857 13.264 16.1806 13.5296L11.9623 19.0021C11.7648 19.2585 11.3809 19.2671 11.1722 19.0193L8.32808 15.6486C8.11937 15.4013 7.73548 15.4094 7.53795 15.6659H7.53744Z" fill="#575757"/>
</svg>
