<svg width="26" height="26" viewBox="0 0 26 26" fill="none" xmlns="http://www.w3.org/2000/svg">
<path d="M25.153 0.846332C24.589 0.282336 23.9004 0 23.0879 0H2.91206C2.09958 0 1.41168 0.282336 0.847009 0.845655C0.282336 1.41033 0 2.0989 0 2.91138V23.0879C0 23.9004 0.282336 24.589 0.846332 25.153C1.41033 25.717 2.0989 25.9993 2.91138 25.9993H23.0879C23.9004 25.9993 24.589 25.717 25.153 25.153C25.717 24.589 25.9993 23.9004 25.9993 23.0879V2.91206C25.9993 2.09958 25.717 1.411 25.153 0.847009V0.846332ZM14.6693 17.2807L12.1493 19.8008C11.3639 20.5462 10.3361 20.9559 9.25346 20.9559C8.17015 20.9559 7.14034 20.5456 6.35494 19.7994C5.53975 19.0249 5.07461 17.9795 5.04549 16.8556C5.01638 15.733 5.426 14.6659 6.19854 13.8507L8.71519 11.3341C8.83165 11.2312 8.98128 11.1743 9.137 11.1743C9.29273 11.1743 9.44574 11.2325 9.56288 11.3375C9.68949 11.4512 9.76396 11.6076 9.77277 11.7769C9.78157 11.9448 9.72537 12.1059 9.61433 12.2312L7.09429 14.7512L7.08955 14.756C6.57972 15.3017 6.29874 16.0133 6.29874 16.7601C6.29874 17.5069 6.57837 18.2185 7.0882 18.7649C7.64204 19.3587 8.42541 19.6992 9.23721 19.6992C9.98266 19.6992 10.6943 19.4189 11.24 18.9098L11.2467 18.9037L13.7647 16.3857L13.7661 16.387C13.8832 16.2814 14.0349 16.2232 14.192 16.2232C14.3491 16.2232 14.5007 16.2814 14.6178 16.3863C14.8772 16.6199 14.8995 17.0194 14.6693 17.2807ZM10.8798 16.0173C10.7599 16.1372 10.6008 16.2029 10.4309 16.2029C10.2616 16.2029 10.1018 16.1372 9.98198 16.0173C9.86214 15.8975 9.79646 15.7384 9.79646 15.5684C9.79646 15.3985 9.86282 15.2394 9.98198 15.1196L15.0261 10.0754C15.1426 9.9725 15.2922 9.91563 15.4479 9.91563C15.6037 9.91563 15.7567 9.97386 15.8738 10.0788C16.0004 10.1925 16.0749 10.3489 16.0837 10.5182C16.0925 10.6861 16.0363 10.8473 15.9253 10.9725L10.8804 16.0173H10.8798ZM20.9559 9.25752C20.9572 10.3645 20.507 11.4458 19.7202 12.2244L17.1961 14.7485L17.1914 14.7533L17.1846 14.7614C17.1697 14.7776 17.1541 14.7932 17.1379 14.8081C17.0208 14.9137 16.8698 14.9713 16.712 14.9713C16.5319 14.9713 16.3593 14.8948 16.2387 14.7607C16.125 14.6341 16.0674 14.4716 16.0762 14.3017C16.0851 14.1317 16.1595 13.976 16.2855 13.8622L16.2909 13.8575L18.8204 11.328L18.8251 11.3226C19.335 10.7769 19.6159 10.0653 19.6159 9.31846C19.6159 8.57165 19.3363 7.86006 18.8265 7.31366C18.2726 6.71988 17.4893 6.37931 16.6775 6.37931C15.932 6.37931 15.2204 6.65962 14.6747 7.16877L14.6686 7.17487L12.1371 9.70641L12.1337 9.71048C12.1188 9.72673 12.1032 9.7423 12.087 9.75719C11.9698 9.86282 11.8189 9.92037 11.6611 9.92037C11.481 9.92037 11.3084 9.84386 11.1878 9.7098C10.9529 9.44913 10.9746 9.0456 11.2352 8.81133L11.2406 8.80659L13.7702 6.27708C14.565 5.4822 15.6213 5.04482 16.7452 5.04414C19.0668 5.04414 20.9545 6.93112 20.9559 9.25143V9.2582V9.25752Z" fill="#575757"/>
</svg>
