<svg width="26" height="26" viewBox="0 0 26 26" fill="none" xmlns="http://www.w3.org/2000/svg">
<g clip-path="url(#clip0_12328_8743)">
<path fill-rule="evenodd" clip-rule="evenodd" d="M13 0H2.90333C1.3 0 0 1.3 0 2.90333V23.0967C0 24.7 1.3 26 2.90333 26H23.0967C24.7 26 26 24.7 26 23.0967V13H17.3333C14.9398 13 13 11.0602 13 8.66667V0ZM26 10.1109V9.8624C26 8.71339 25.543 7.61245 24.7305 6.79995L19.2014 1.2675C18.3882 0.456354 17.2866 0 16.1376 0H15.8891V8.66667C15.8891 9.46427 16.5357 10.1109 17.3333 10.1109H26Z" fill="#575757"/>
</g>
<defs>
<clipPath id="clip0_12328_8743">
<rect width="26" height="26" fill="white"/>
</clipPath>
</defs>
</svg>
