<svg width="26" height="15" viewBox="0 0 26 15" fill="none" xmlns="http://www.w3.org/2000/svg">
<g clip-path="url(#clip0_12328_8733)">
<path d="M12.9978 4.56833C15.9509 4.56833 18.345 6.90352 18.345 9.78386C18.345 12.6642 15.9509 14.9994 12.9978 14.9994C10.0447 14.9994 7.65054 12.6642 7.65054 9.78386C7.65054 6.90352 10.0447 4.56833 12.9978 4.56833ZM12.9978 6.524C11.1519 6.524 9.6556 7.98342 9.6556 9.78386C9.6556 11.5843 11.1519 13.0437 12.9978 13.0437C14.8437 13.0437 16.34 11.5843 16.34 9.78386C16.34 7.98342 14.8437 6.524 12.9978 6.524ZM12.9978 0C19.1652 0 24.4868 4.10691 25.9643 9.86269C26.1109 10.3834 25.7963 10.9212 25.2625 11.0642C24.7286 11.2072 24.1773 10.9004 24.0306 10.3797C24.0262 10.3651 24.0225 10.3504 24.0194 10.3357C22.4805 4.39843 16.298 0.802436 10.2108 2.30341C6.15865 3.30325 2.99567 6.39077 1.97434 10.3437C1.83586 10.8668 1.28948 11.1809 0.75313 11.0459C0.222416 10.912 -0.0996474 10.3877 0.0294284 9.8682C1.52132 4.0678 6.86669 0 12.9978 0Z" fill="#575757"/>
</g>
<defs>
<clipPath id="clip0_12328_8733">
<rect width="26" height="15" fill="white"/>
</clipPath>
</defs>
</svg>
