<svg width="39" height="26" viewBox="0 0 39 26" fill="none" xmlns="http://www.w3.org/2000/svg">
<path d="M22.8371 25.562L5.9061 25.5894C4.95139 25.5908 4.0831 25.3562 3.23813 25.0435C1.26288 24.1697 0.102413 22.3631 0.00639322 20.2109C-0.115689 17.473 1.51938 15.1329 4.16129 14.3963C4.62218 9.42521 8.76336 5.78058 13.7166 5.82859C17.294 5.86426 20.3858 7.75858 22.0236 10.93C26.4117 10.9327 29.9041 14.0629 29.7642 18.5731C29.6476 22.3316 26.7807 25.5551 22.8371 25.5606V25.562Z" fill="#575757"/>
<path d="M32.3434 9.92482C35.7521 10.8356 37.6204 8.9029 38.4763 9.35693C39.3926 9.84252 38.6231 12.1388 38.1142 12.9522C36.7644 15.2169 34.5711 16.7943 31.9525 17.439C31.6109 12.7684 27.8744 9.2129 23.2421 8.89467C22.8128 8.14434 22.3766 7.54354 21.7744 6.84945C22.4534 3.94007 24.5192 1.43945 27.301 0.313275C27.9553 0.0485358 28.7838 -0.161335 29.3723 0.170618C30.3037 0.694609 28.6659 2.70004 28.7797 5.38173C28.8744 7.59429 30.2324 9.36105 32.342 9.92482H32.3434Z" fill="#575757"/>
</svg>
