<svg width="26" height="25" viewBox="0 0 26 25" fill="none" xmlns="http://www.w3.org/2000/svg">
<path d="M5.49975 17.2002C2.1352 17.2002 0 14.9464 0 12.0671C0 9.65152 1.54209 7.88297 3.58023 7.21437C4.0655 3.17044 7.44083 0 11.7112 0C15.2483 0 17.6315 1.84403 18.9256 4.34588C22.7107 4.34588 25.59 7.11732 25.59 10.773C25.59 14.3533 22.7754 17.2002 19.0334 17.2002H5.49975ZM19.756 19.7452C20.2304 19.7452 20.5971 20.0903 20.5971 20.5432C20.5971 21.0069 20.2304 21.352 19.756 21.352H6.04972C5.57523 21.352 5.20858 21.0069 5.20858 20.5432C5.20858 20.0903 5.57523 19.7452 6.04972 19.7452H19.756ZM19.756 23.4009C20.2304 23.4009 20.5971 23.746 20.5971 24.2097C20.5971 24.6734 20.2304 25.0077 19.756 25.0077H6.04972C5.57523 25.0077 5.20858 24.6734 5.20858 24.2097C5.20858 23.746 5.57523 23.4009 6.04972 23.4009H19.756Z" fill="#575757"/>
</svg>
