<svg width="22" height="26" viewBox="0 0 22 26" fill="none" xmlns="http://www.w3.org/2000/svg">
<path d="M21.2097 11.2416C21.583 11.4392 21.7586 11.8893 21.5391 12.2735C21.3305 12.6248 20.8914 12.7346 20.4852 12.4931L19.2337 11.7466L19.2227 13.031C19.2227 13.4153 18.9482 13.7336 18.586 13.7227C18.1798 13.7117 17.9273 13.3933 17.9273 12.9981L17.9163 10.9671L15.1059 9.28749L15.1498 12.5919L16.8953 13.6129C17.2686 13.8324 17.4113 14.2057 17.2027 14.546C17.0051 14.8644 16.6209 14.9632 16.2806 14.7656L15.1718 14.1288L15.1937 15.556C15.1937 15.9951 14.8973 16.3464 14.4582 16.3464C14.03 16.3464 13.7336 16.0061 13.7336 15.556L13.7556 14.1179L12.9871 14.557C12.7346 14.2276 12.4821 13.8215 12.3065 13.4372L13.7775 12.5919L13.8215 9.28749L12.1089 10.3085L12.1198 8.76054L13.1628 8.16772L12.1198 7.5749V6.02699L13.8215 7.05893L13.7775 3.72158L12.0101 2.70062C11.6478 2.49203 11.527 2.1078 11.7137 1.76748C11.9003 1.44911 12.3065 1.36129 12.6358 1.54791L13.7556 2.19562L13.7336 0.790425C13.7336 0.3513 14.03 0 14.4582 0C14.8973 0 15.1937 0.3513 15.1937 0.790425L15.1718 2.19562L16.2806 1.54791C16.6209 1.35031 17.0271 1.44911 17.2137 1.76748C17.4003 2.11878 17.2686 2.49203 16.9063 2.70062L15.1498 3.72158L15.1059 7.05893L17.9382 5.3683L17.9492 3.33735C17.9492 2.9092 18.2127 2.61279 18.6189 2.61279C18.9812 2.62377 19.2556 2.9092 19.2556 3.30441V4.58885L20.5291 3.83136C20.8804 3.62278 21.3305 3.72158 21.5391 4.08386C21.7586 4.4681 21.6269 4.89624 21.2207 5.1158L19.9692 5.8184L21.078 6.45513C21.4183 6.65274 21.5501 7.05893 21.3634 7.3773C21.1548 7.70664 20.7486 7.77251 20.3973 7.5749L18.6299 6.56492L15.7536 8.16772L18.5969 9.77053L20.3754 8.76054C20.7377 8.55196 21.1219 8.61782 21.3195 8.96912C21.5061 9.28749 21.3964 9.6827 21.056 9.86933L19.9363 10.517L21.2097 11.2416ZM6.46611 25.59C2.88725 25.59 0 22.7576 0 19.1898C0 17.4223 0.680643 15.8524 2.009 14.6448C2.22856 14.4362 2.26149 14.3155 2.26149 14.0191V4.75353C2.26149 2.06389 3.9631 0.252497 6.46611 0.252497C8.94717 0.252497 10.6488 2.06389 10.6488 4.75353V14.0191C10.6488 14.3155 10.6817 14.4362 10.9123 14.6448C12.2186 15.8853 12.9103 17.4223 12.9103 19.1898C12.9103 22.7576 10.023 25.59 6.46611 25.59ZM6.46611 23.1968C8.69467 23.1968 10.5061 21.3744 10.5061 19.1239C10.5061 17.7077 9.84737 16.5331 8.69467 15.7756C8.36533 15.556 8.23359 15.3584 8.23359 14.9193V4.83037C8.23359 3.52398 7.50903 2.65671 6.46611 2.65671C5.40124 2.65671 4.67668 3.52398 4.67668 4.83037V14.9193C4.67668 15.3584 4.54494 15.556 4.2156 15.7756C3.0629 16.5331 2.40421 17.7077 2.40421 19.1239C2.40421 21.3744 4.2156 23.1968 6.46611 23.1968ZM6.45513 21.7147C5.02798 21.7147 3.87528 20.562 3.87528 19.1239C3.87528 18.1249 4.43516 17.3015 5.25852 16.8514C5.59884 16.6648 5.7196 16.544 5.7196 16.0171V13.6678C5.7196 13.1408 6.04894 12.8005 6.45513 12.8005C6.86133 12.8005 7.19067 13.1408 7.19067 13.6678V16.0171C7.19067 16.544 7.31143 16.6648 7.65175 16.8514C8.47511 17.3015 9.03499 18.1249 9.03499 19.1239C9.03499 20.562 7.88229 21.7147 6.45513 21.7147Z" fill="#575757"/>
</svg>
