<svg width="26" height="26" viewBox="0 0 26 26" fill="none" xmlns="http://www.w3.org/2000/svg">
<path d="M19.2637 16.8703C21.1784 16.8703 22.485 16.508 23.4295 16.1846C23.8305 16.0423 24.154 15.9388 24.4256 15.9388C24.9173 15.9388 25.3701 16.301 25.3701 16.9349C25.3701 17.1549 25.3054 17.5042 25.1243 17.9182C23.2742 22.3557 18.6039 25.59 13.2219 25.59C5.92529 25.59 0 19.6647 0 12.3681C0 7.08965 3.22139 2.16053 8.04701 0.206997C8.42219 0.0646866 8.7715 0 9.01731 0C9.62536 0 9.97467 0.426931 9.97467 0.918549C9.97467 1.1773 9.88411 1.50073 9.69005 1.88885C9.21137 2.89796 8.88793 4.70918 8.88793 6.32634C8.88793 12.9373 12.9373 16.8703 19.2637 16.8703Z" fill="#575757"/>
</svg>
