<svg width="27" height="26" viewBox="0 0 27 26" fill="none" xmlns="http://www.w3.org/2000/svg">
<path d="M22.0709 12.0186C21.8362 8.72307 19.1764 6.30769 16.0471 6.13167C15.7733 5.55472 15.4311 5.10489 15.0497 4.74307C15.6462 1.99521 18.1496 0.0589933 19.8804 0.000320092C20.2716 -0.00945878 20.4965 0.205676 20.4965 0.528379C20.4965 1.10533 19.8804 2.093 19.8804 3.46204C19.8804 5.60361 21.3277 7.02155 23.6453 7.01177C25.0632 7.00199 25.8162 6.3957 26.3443 6.3957C26.6865 6.3957 26.8626 6.69885 26.8626 7.11934C26.8626 8.81108 25.0535 11.3047 22.0709 12.0186ZM4.21469 17.6316C1.7113 17.6316 0 16.0474 0 13.7103C0 11.8719 1.12457 10.3953 2.87499 9.90631C3.15858 6.55216 5.97489 3.99988 9.35838 3.99988C12.1747 3.99988 14.1305 5.52538 15.1866 7.53005C18.2572 7.53005 20.5161 9.69118 20.5161 12.6053C20.5161 15.4607 18.3647 17.6316 15.5386 17.6316H4.21469ZM12.2138 22.4624C12.0182 22.8046 11.588 22.9513 11.2261 22.746C10.8643 22.5406 10.7763 22.1103 10.9817 21.7681L12.2236 19.6167C12.4387 19.2451 12.8397 19.118 13.2015 19.3234C13.5633 19.5287 13.6611 19.9688 13.4557 20.3208L12.2138 22.4624ZM4.42983 22.4722C4.23425 22.8144 3.80398 22.9513 3.44216 22.7558C3.08034 22.5406 2.99233 22.1103 3.19769 21.7681L4.43961 19.6167C4.65474 19.2451 5.05568 19.118 5.41749 19.3331C5.77931 19.5385 5.8771 19.9688 5.67174 20.3208L4.42983 22.4722ZM15.2942 25.2102C15.0986 25.5525 14.6683 25.6894 14.3065 25.4938C13.9447 25.2787 13.8567 24.8484 14.062 24.5159L15.3039 22.3548C15.5191 21.9832 15.92 21.8561 16.2818 22.0712C16.6436 22.2766 16.7414 22.7069 16.5361 23.0589L15.2942 25.2102ZM7.51017 25.2102C7.3146 25.5623 6.88433 25.6992 6.53229 25.4938C6.16069 25.2885 6.07268 24.8582 6.27804 24.5159L7.51995 22.3646C7.73509 21.993 8.13602 21.8659 8.50762 22.0712C8.85966 22.2864 8.95745 22.7166 8.75209 23.0687L7.51017 25.2102Z" fill="#575757"/>
</svg>
