<svg width="26" height="26" viewBox="0 0 26 26" fill="none" xmlns="http://www.w3.org/2000/svg">
<path d="M14.2177 22.2091C13.9957 22.5897 13.5411 22.7377 13.15 22.5157C12.7483 22.2937 12.6638 21.8286 12.8752 21.4586L14.2177 19.133C14.4608 18.7313 14.8942 18.5939 15.2853 18.8159C15.6764 19.0485 15.7821 19.5136 15.5601 19.8941L14.2177 22.2091ZM5.80334 22.2197C5.58136 22.5897 5.12681 22.7482 4.7357 22.5262C4.33401 22.2937 4.24944 21.8391 4.46086 21.4692L5.80334 19.133C6.04647 18.7419 6.47987 18.6045 6.87099 18.8265C7.26211 19.0485 7.36781 19.5241 7.14583 19.9047L5.80334 22.2197ZM17.5474 25.1795C17.3255 25.5495 16.8709 25.708 16.4798 25.486C16.0781 25.2535 15.9935 24.7989 16.205 24.429L17.5474 22.0928C17.7906 21.7017 18.224 21.5643 18.6151 21.7863C19.0062 22.0083 19.1119 22.484 18.8899 22.8645L17.5474 25.1795ZM9.13313 25.1795C8.91114 25.56 8.4566 25.708 8.06548 25.486C7.67437 25.2641 7.57923 24.7989 7.79064 24.429L9.1437 22.1034C9.37626 21.7017 9.80966 21.5643 10.2008 21.7863C10.5919 22.0188 10.6976 22.484 10.4756 22.8645L9.13313 25.1795Z" fill="#575757"/>
<path d="M5.39108 16.8603C2.09301 16.8603 0 14.6511 0 11.8287C0 9.46082 1.51162 7.72722 3.50949 7.07183C3.98517 3.1078 7.29382 0 11.4798 0C14.947 0 17.2832 1.8076 18.5517 4.26001C22.262 4.26001 25.0844 6.9767 25.0844 10.5602C25.0844 14.0697 22.3254 16.8603 18.6574 16.8603H5.39108Z" fill="#575757"/>
</svg>
