<svg width="24" height="26" viewBox="0 0 24 26" fill="none" xmlns="http://www.w3.org/2000/svg">
<path d="M11.8077 4.31789C11.2347 4.31789 10.764 3.82676 10.764 3.21284V1.09482C10.764 0.470671 11.2347 0 11.8077 0C12.3807 0 12.8514 0.470671 12.8514 1.09482V3.21284C12.8514 3.82676 12.3807 4.30766 11.8077 4.31789ZM17.0976 6.50753C16.6986 6.10848 16.7088 5.42294 17.1385 4.9932L18.6426 3.49933C19.0826 3.04913 19.7477 3.04913 20.1467 3.45841C20.556 3.86768 20.5663 4.53276 20.116 4.97274L18.6222 6.4666C18.1822 6.89635 17.5069 6.90658 17.0976 6.50753ZM6.50753 6.50753C6.10848 6.91681 5.42294 6.89635 4.9932 6.4666L3.4891 4.97274C3.04913 4.53276 3.04913 3.85745 3.45841 3.45841C3.86768 3.05936 4.53276 3.04913 4.97274 3.49933L6.47684 4.9932C6.90658 5.42294 6.91681 6.09825 6.50753 6.50753ZM17.3739 11.777C17.3739 12.3602 17.2613 12.923 17.0874 13.4448H6.528C6.34382 12.923 6.2415 12.3602 6.2415 11.777C6.2415 8.7074 8.74833 6.19034 11.8077 6.19034C14.867 6.19034 17.3739 8.7074 17.3739 11.777ZM1.09482 12.4625C0.491134 12.4625 0 12.0021 0 11.4189C0 10.8459 0.491134 10.3752 1.09482 10.3752H3.21284C3.83699 10.3752 4.31789 10.8459 4.31789 11.4189C4.32812 12.0021 3.83699 12.4625 3.21284 12.4625H1.09482ZM20.4025 12.4625C19.7886 12.4625 19.2975 12.0021 19.2975 11.4189C19.2873 10.8459 19.7886 10.3752 20.4025 10.3752H22.5103C23.1345 10.3854 23.6154 10.8459 23.6154 11.4189C23.6154 12.0021 23.1345 12.4625 22.5103 12.4625H20.4025Z" fill="#575757"/>
<path d="M1.56567 16.4015C1.11546 16.4015 0.767578 16.0741 0.767578 15.6341C0.767578 15.2044 1.11546 14.877 1.56567 14.877H22.0501C22.5003 14.877 22.8379 15.2044 22.8379 15.6341C22.8379 16.0741 22.5003 16.4015 22.0501 16.4015H1.56567ZM17.4764 21.7528C17.2206 21.7528 17.0671 21.5482 17.0978 21.3026L17.2001 20.3511L16.4225 20.924C16.2281 21.0775 15.9621 21.0468 15.8495 20.832C15.7267 20.6273 15.8188 20.3715 16.0541 20.2692L16.9443 19.8804L16.0644 19.5018C15.8188 19.3893 15.7369 19.1539 15.8495 18.9493C15.9723 18.7344 16.2281 18.7037 16.4225 18.847L17.2001 19.4302L17.0876 18.4786C17.0569 18.2228 17.2206 18.0182 17.4764 18.0182C17.7117 18.0182 17.8857 18.2228 17.8447 18.4786L17.7219 19.4302L18.4996 18.8572C18.694 18.7037 18.9702 18.7446 19.093 18.9493C19.2056 19.1539 19.1135 19.3995 18.8782 19.5018L17.988 19.8906L18.8679 20.259C19.1135 20.3613 19.2056 20.6273 19.0726 20.832C18.96 21.0366 18.7042 21.0775 18.5098 20.924L17.7219 20.3408L17.8447 21.3026C17.8652 21.5482 17.7117 21.7528 17.4764 21.7528ZM6.13936 21.7528C5.88356 21.7528 5.73008 21.5482 5.76078 21.3026L5.8631 20.3511L5.08547 20.924C4.89106 21.0775 4.62503 21.0468 4.51248 20.832C4.38969 20.6273 4.48178 20.3715 4.71712 20.2692L5.61753 19.8804L4.72735 19.5018C4.48178 19.3893 4.39993 19.1539 4.51248 18.9493C4.63526 18.7344 4.89106 18.7037 5.08547 18.847L5.8631 19.4302L5.75055 18.4786C5.73008 18.2228 5.88356 18.0182 6.13936 18.0182C6.3747 18.0182 6.54864 18.2228 6.50771 18.4786L6.38493 19.4302L7.16256 18.8572C7.35697 18.7037 7.63323 18.7446 7.75601 18.9493C7.86856 19.1539 7.78671 19.3995 7.54114 19.5018L6.65096 19.8906L7.53091 20.259C7.77648 20.3613 7.86856 20.6273 7.74578 20.832C7.623 21.0366 7.3672 21.0775 7.17279 20.924L6.38493 20.3408L6.50771 21.3026C6.53841 21.5482 6.3747 21.7528 6.13936 21.7528ZM11.8079 21.7528C11.5521 21.7528 11.3986 21.5482 11.4293 21.3026L11.5316 20.3511L10.754 20.924C10.5596 21.0775 10.2935 21.0468 10.181 20.832C10.0582 20.6273 10.1503 20.3715 10.3856 20.2692L11.286 19.8804L10.3959 19.5018C10.1503 19.3893 10.0684 19.1539 10.181 18.9493C10.3038 18.7344 10.5596 18.7037 10.754 18.847L11.5316 19.4302L11.4191 18.4786C11.3986 18.2228 11.5521 18.0182 11.8079 18.0182C12.0432 18.0182 12.2172 18.2228 12.1762 18.4786L12.0534 19.4302L12.8311 18.8572C13.0255 18.7037 13.3017 18.7446 13.4245 18.9493C13.5371 19.1539 13.445 19.3995 13.2097 19.5018L12.3195 19.8906L13.1994 20.259C13.445 20.3613 13.5371 20.6273 13.4041 20.832C13.2915 21.0366 13.0357 21.0775 12.8413 20.924L12.0534 20.3408L12.1762 21.3026C12.2069 21.5482 12.0432 21.7528 11.8079 21.7528ZM3.91902 25.5898C3.66322 25.5898 3.50975 25.3852 3.54044 25.1396L3.64276 24.188L2.86513 24.761C2.67072 24.9145 2.40469 24.8838 2.29214 24.6792C2.16936 24.4643 2.26145 24.2085 2.49678 24.1062L3.39719 23.7174L2.50701 23.3388C2.26145 23.2365 2.17959 22.9909 2.29214 22.7863C2.41492 22.5714 2.67072 22.5407 2.86513 22.6839L3.64276 23.2672L3.53021 22.3156C3.50975 22.0598 3.66322 21.8654 3.91902 21.8654C4.15436 21.8654 4.3283 22.0598 4.28737 22.3156L4.16459 23.2672L4.94222 22.6942C5.13663 22.5407 5.41289 22.5816 5.53568 22.7863C5.64823 22.9909 5.56637 23.2365 5.3208 23.3388L4.43062 23.7276L5.31057 24.1062C5.55614 24.2085 5.64823 24.4745 5.52544 24.6792C5.40266 24.8736 5.14686 24.9145 4.95245 24.761L4.16459 24.1778L4.28737 25.1396C4.31807 25.3852 4.15436 25.5898 3.91902 25.5898ZM9.58753 25.5898C9.33174 25.5898 9.17826 25.3852 9.20895 25.1396L9.31127 24.188L8.53364 24.761C8.33923 24.9145 8.0732 24.8838 7.96065 24.6792C7.83787 24.4643 7.92996 24.2085 8.16529 24.1062L9.0657 23.7174L8.17552 23.3388C7.92996 23.2365 7.8481 22.9909 7.96065 22.7863C8.08344 22.5714 8.33923 22.5407 8.53364 22.6839L9.31127 23.2672L9.19872 22.3156C9.17826 22.0598 9.33174 21.8654 9.58753 21.8654C9.82287 21.8654 9.99681 22.0598 9.95589 22.3156L9.8331 23.2672L10.6107 22.6942C10.8051 22.5407 11.0814 22.5816 11.2042 22.7863C11.3167 22.9909 11.2246 23.2365 10.9893 23.3388L10.0991 23.7276L10.9791 24.1062C11.2246 24.2085 11.3167 24.4745 11.194 24.6792C11.0712 24.8736 10.8154 24.9145 10.621 24.761L9.8331 24.1778L9.95589 25.1396C9.98658 25.3852 9.82287 25.5898 9.58753 25.5898ZM15.256 25.5898C15.0002 25.5898 14.8468 25.3852 14.8775 25.1396L14.9798 24.188L14.2022 24.761C14.0077 24.9145 13.7417 24.8838 13.6292 24.6792C13.5064 24.4643 13.5985 24.2085 13.8338 24.1062L14.7342 23.7174L13.844 23.3388C13.5985 23.2365 13.5166 22.9909 13.6292 22.7863C13.7519 22.5714 14.0077 22.5407 14.2022 22.6839L14.9798 23.2672L14.8672 22.3156C14.8365 22.0598 15.0002 21.8654 15.256 21.8654C15.4914 21.8654 15.6653 22.0598 15.6244 22.3156L15.5016 23.2672L16.2792 22.6942C16.4736 22.5407 16.7499 22.5816 16.8727 22.7863C16.9852 22.9909 16.8932 23.2365 16.6578 23.3388L15.7676 23.7276L16.6476 24.1062C16.8932 24.2085 16.9852 24.4745 16.8522 24.6792C16.7397 24.8736 16.4839 24.9145 16.2895 24.761L15.5016 24.1778L15.6244 25.1396C15.6449 25.3852 15.4914 25.5898 15.256 25.5898Z" fill="#575757"/>
</svg>
