<svg width="37" height="26" viewBox="0 0 37 26" fill="none" xmlns="http://www.w3.org/2000/svg">
<path d="M23.6505 4.80722C22.9638 4.80722 22.3975 4.22891 22.3975 3.55421V1.25301C22.3975 0.566264 22.9638 0 23.6505 0C24.3252 0 24.8914 0.566264 24.8914 1.25301V3.55421C24.8914 4.22891 24.3252 4.80722 23.6505 4.80722ZM16.2049 7.15661L14.5785 5.51806C14.0965 5.03613 14.0845 4.24095 14.5664 3.75903C15.0483 3.2771 15.8555 3.2771 16.3374 3.75903L17.9639 5.40963C18.4338 5.9036 18.4458 6.68673 17.976 7.16866C17.5061 7.65058 16.6989 7.63854 16.2049 7.15661ZM29.325 7.16866C28.8552 6.69878 28.8431 5.89155 29.3371 5.40963L30.9756 3.78312C31.4575 3.28915 32.2527 3.28915 32.7346 3.77108C33.2045 4.253 33.2045 5.04818 32.7225 5.53011L31.0961 7.15661C30.6021 7.63854 29.7949 7.65058 29.325 7.16866ZM27.0721 17.9518C26.5299 14.3012 23.6746 11.7229 19.8554 11.4699C19.4699 10.7349 19.0121 10.1205 18.4699 9.59034C19.4699 7.89155 21.4216 6.69878 23.6625 6.69878C27.048 6.69878 29.7949 9.43371 29.7949 12.8313C29.7949 14.9518 28.7226 16.8072 27.0721 17.9518ZM32.9153 14.0723C32.2406 14.0723 31.6623 13.518 31.6623 12.8433C31.6623 12.1566 32.2406 11.5903 32.9153 11.5903H35.2164C35.9032 11.5903 36.4694 12.1566 36.4694 12.8433C36.4694 13.518 35.9032 14.0723 35.2164 14.0723H32.9153ZM30.9636 21.9036L29.3371 20.2771C28.8552 19.7951 28.8431 19 29.313 18.518C29.7949 18.0361 30.6142 18.0361 31.084 18.518L32.7105 20.1566C33.1924 20.6506 33.2045 21.4337 32.7225 21.9156C32.2406 22.3975 31.4575 22.3975 30.9636 21.9036Z" fill="#575757"/>
<path d="M0 20.7474C0 23.6028 2.08428 25.5907 5.19263 25.5907H19.1441C22.6379 25.5907 25.3005 22.904 25.3005 19.3859C25.3005 15.7835 22.5175 13.1088 18.7344 13.1088C17.4453 10.6751 15.0357 8.77148 11.5298 8.77148C7.36125 8.77148 3.89146 11.9161 3.53003 16.0486C1.4096 16.6389 0 18.4582 0 20.7474Z" fill="#575757"/>
</svg>
