<svg width="24" height="26" viewBox="0 0 24 26" fill="none" xmlns="http://www.w3.org/2000/svg">
<path d="M5.10998 15.9812C1.98388 15.9812 0 13.8871 0 11.2119C0 8.96752 1.4328 7.32431 3.3265 6.7031C3.77738 2.94576 6.91351 0 10.8813 0C14.1677 0 16.382 1.71335 17.5844 4.03789C21.1012 4.03789 23.7765 6.61292 23.7765 10.0096C23.7765 13.3361 21.1613 15.9812 17.6846 15.9812H5.10998ZM6.62294 19.6183C6.41253 19.969 5.98169 20.1093 5.61096 19.8989C5.24024 19.6885 5.15006 19.2476 5.35045 18.8969L5.89151 17.9451C6.11194 17.5743 6.53276 17.4441 6.90349 17.6545C7.27421 17.8649 7.37441 18.3158 7.164 18.6765L6.62294 19.6183ZM10.9915 21.1513C10.7911 21.502 10.3502 21.6423 9.9795 21.4419C9.60877 21.2215 9.5186 20.7806 9.72901 20.4399L11.1518 17.9651C11.3722 17.5844 11.783 17.4541 12.1537 17.6645C12.5245 17.8749 12.6247 18.3258 12.4143 18.6865L10.9915 21.1513ZM17.1235 19.6484C16.913 20.0091 16.4822 20.1494 16.1115 19.939C15.7307 19.7285 15.6506 19.2877 15.851 18.937L16.392 17.9851C16.6125 17.6044 17.0333 17.4741 17.404 17.6946C17.7747 17.905 17.8749 18.3458 17.6645 18.7066L17.1235 19.6484ZM4.35852 24.057C4.10803 24.057 3.95773 23.8466 3.98779 23.6061L4.08799 22.6743L3.3265 23.2354C3.13613 23.3857 2.88564 23.3556 2.7654 23.1552C2.64517 22.9448 2.73534 22.6943 2.9658 22.6042L3.84752 22.2234L2.97581 21.8427C2.73534 21.7425 2.65519 21.502 2.7654 21.3016C2.88564 21.1012 3.13613 21.0612 3.3265 21.2014L4.08799 21.7725L3.97777 20.8407C3.95773 20.6003 4.10803 20.3999 4.35852 20.3999C4.58897 20.3999 4.7593 20.6003 4.71922 20.8407L4.59899 21.7725L5.36047 21.2114C5.55085 21.0612 5.82137 21.1012 5.94161 21.3016C6.05182 21.502 5.96165 21.7425 5.7312 21.8427L4.8595 22.2234L5.72118 22.5941C5.96165 22.6843 6.0418 22.9549 5.92157 23.1552C5.81135 23.3556 5.56087 23.3857 5.37049 23.2354L4.59899 22.6643L4.71922 23.6061C4.74928 23.8466 4.58897 24.057 4.35852 24.057ZM14.9692 24.0971C14.7288 24.0971 14.5785 23.8867 14.6085 23.6462L14.7087 22.7144L13.9473 23.2755C13.7569 23.4258 13.4964 23.3957 13.3862 23.1953C13.2659 22.9849 13.3461 22.7344 13.5865 22.6342L14.4583 22.2535L13.5865 21.8828C13.3461 21.7826 13.2659 21.5421 13.3862 21.3417C13.4964 21.1413 13.7569 21.1012 13.9473 21.2415L14.7087 21.8126L14.5985 20.8808C14.5685 20.6303 14.7288 20.4399 14.9692 20.4399C15.2097 20.4399 15.37 20.6303 15.34 20.8808L15.2197 21.8126L15.9812 21.2515C16.1716 21.1012 16.4421 21.1413 16.5523 21.3417C16.6626 21.5421 16.5824 21.7826 16.352 21.8828L15.4802 22.2635L16.3419 22.6342C16.5724 22.7244 16.6626 22.9949 16.5423 23.1953C16.4221 23.3857 16.1716 23.4258 15.9812 23.2755L15.2097 22.7044L15.33 23.6462C15.37 23.8867 15.2097 24.0971 14.9692 24.0971ZM9.25809 25.59C9.0076 25.59 8.85731 25.3796 8.88737 25.1391L8.98756 24.2173L8.22607 24.7784C8.0357 24.9187 7.78521 24.8986 7.66498 24.6882C7.54474 24.4878 7.63492 24.2273 7.86537 24.1372L8.74709 23.7564L7.87539 23.3857C7.63492 23.2855 7.55476 23.035 7.66498 22.8346C7.78521 22.6342 8.0357 22.5941 8.22607 22.7444L8.98756 23.3055L8.87735 22.3737C8.85731 22.1332 9.0076 21.9329 9.25809 21.9329C9.48854 21.9329 9.65887 22.1332 9.61879 22.3737L9.49856 23.3055L10.26 22.7444C10.4504 22.5941 10.7209 22.6342 10.8412 22.8346C10.9514 23.035 10.8612 23.2755 10.6308 23.3857L9.75907 23.7564L10.6208 24.1271C10.8612 24.2173 10.9414 24.4878 10.8312 24.6882C10.7109 24.8886 10.4604 24.9187 10.2701 24.7684L9.49856 24.1973L9.61879 25.1391C9.64885 25.3796 9.48854 25.59 9.25809 25.59Z" fill="#575757"/>
</svg>
