<svg width="27" height="26" viewBox="0 0 27 26" fill="none" xmlns="http://www.w3.org/2000/svg">
<path d="M17.0622 3.47337C16.566 3.47337 16.1655 3.05552 16.1655 2.56803V0.905339C16.1655 0.400438 16.566 0 17.0622 0C17.5583 0 17.9588 0.400438 17.9588 0.905339V2.56803C17.9588 3.05552 17.5583 3.47337 17.0622 3.47337ZM11.6824 5.16217L10.5159 3.98697C10.1677 3.63877 10.1589 3.06422 10.5072 2.71602C10.8467 2.36781 11.4386 2.3591 11.7781 2.71602L12.9533 3.90863C13.3015 4.26554 13.3015 4.83138 12.962 5.17958C12.6225 5.51908 12.0393 5.51908 11.6824 5.16217ZM21.1623 5.17958C20.8228 4.83138 20.8228 4.25683 21.171 3.90863L22.3549 2.73343C22.7118 2.37651 23.2777 2.37651 23.6259 2.72472C23.9741 3.06422 23.9741 3.64747 23.6172 3.99568L22.442 5.17088C22.0937 5.51908 21.5105 5.52779 21.1623 5.17958ZM19.5344 12.9707C19.1514 10.333 17.0796 8.47014 14.32 8.28733C14.0415 7.75632 13.7107 7.31235 13.3276 6.92932C14.0415 5.69319 15.4604 4.83137 17.0709 4.83137C19.5257 4.83137 21.5018 6.81616 21.5018 9.27102C21.5018 10.8031 20.7357 12.1437 19.5344 12.9707ZM3.75193 18.4985C1.52341 18.4985 0 17.0796 0 15.0077C0 13.3712 1.0098 12.048 2.55932 11.6214C2.82048 8.63554 5.31886 6.36349 8.33086 6.36349C10.8467 6.36349 12.5877 7.72149 13.5278 9.49735C16.2613 9.49735 18.2635 11.4212 18.2635 14.024C18.2635 16.5573 16.3483 18.4985 13.8325 18.4985H3.75193ZM23.7564 10.1677C23.2689 10.1677 22.8511 9.76721 22.8511 9.27102C22.8511 8.78353 23.2689 8.37438 23.7564 8.37438H25.4278C25.924 8.37438 26.3332 8.78353 26.3332 9.27102C26.3332 9.76721 25.924 10.1677 25.4278 10.1677H23.7564ZM22.3549 15.826L21.171 14.6508C20.8228 14.3026 20.8141 13.7281 21.1623 13.3799C21.5105 13.0317 22.0937 13.0317 22.4332 13.3799L23.6084 14.5638C23.9567 14.9207 23.9654 15.4865 23.6172 15.8347C23.2777 16.1829 22.7031 16.1829 22.3549 15.826ZM10.925 22.8076C10.7509 23.1123 10.3679 23.2341 10.0458 23.06C9.72369 22.8685 9.64534 22.4942 9.82815 22.1895L10.9337 20.2657C11.1252 19.9349 11.4821 19.8217 11.8042 20.0132C12.1263 20.196 12.2134 20.579 12.0306 20.8924L10.925 22.8076ZM3.99568 22.8076C3.82157 23.121 3.43855 23.2428 3.11645 23.06C2.79436 22.8772 2.71602 22.4942 2.89882 22.1895L4.00438 20.2744C4.1959 19.9436 4.55281 19.8304 4.8749 20.0132C5.19699 20.2047 5.28404 20.5878 5.10124 20.9011L3.99568 22.8076ZM13.6671 25.245C13.493 25.5584 13.11 25.6803 12.7879 25.4975C12.4658 25.3147 12.3875 24.9316 12.5703 24.627L13.6758 22.7118C13.8674 22.381 14.2243 22.2679 14.5464 22.4507C14.8684 22.6422 14.9555 23.0252 14.7727 23.3386L13.6671 25.245ZM6.73781 25.2537C6.56371 25.5584 6.18068 25.689 5.86729 25.5062C5.53649 25.3147 5.45815 24.9403 5.64096 24.6357L6.74651 22.7118C6.93803 22.3897 7.29494 22.2766 7.62574 22.4594C7.93912 22.6422 8.02618 23.0339 7.84337 23.3473L6.73781 25.2537Z" fill="#575757"/>
</svg>
