<svg width="26" height="26" viewBox="0 0 26 26" fill="none" xmlns="http://www.w3.org/2000/svg">
<path d="M12.797 4.84003C12.0617 4.84003 11.447 4.22542 11.447 3.49009V1.34994C11.447 0.614606 12.0617 0 12.797 0C13.5323 0 14.1469 0.614606 14.1469 1.34994V3.49009C14.1469 4.22542 13.5323 4.84003 12.797 4.84003ZM18.4272 7.21065C17.9004 6.69482 17.9004 5.80584 18.4053 5.30098L19.9308 3.77544C20.4357 3.25961 21.3247 3.24863 21.8295 3.75349C22.3453 4.2803 22.3563 5.15831 21.8515 5.67414L20.3369 7.1887C19.8101 7.71551 18.9321 7.71551 18.4272 7.21065ZM7.15578 7.21065C6.65092 7.71551 5.77291 7.71551 5.25708 7.1887L3.74251 5.66316C3.23766 5.15831 3.24863 4.2803 3.76447 3.75349C4.2803 3.24863 5.15831 3.25961 5.67414 3.77544L7.1887 5.30098C7.69356 5.80584 7.68258 6.69482 7.15578 7.21065ZM12.797 18.7784C9.4825 18.7784 6.80457 16.1005 6.80457 12.797C6.80457 9.49348 9.4825 6.80457 12.797 6.80457C16.1005 6.80457 18.7784 9.49348 18.7784 12.797C18.7784 16.1005 16.1005 18.7784 12.797 18.7784ZM20.7539 12.797C20.7539 12.0617 21.3686 11.447 22.1039 11.447H24.244C24.9794 11.447 25.594 12.0617 25.594 12.797C25.594 13.5323 24.9794 14.1469 24.244 14.1469H22.1039C21.3686 14.1469 20.7539 13.5323 20.7539 12.797ZM4.84003 12.797C4.84003 13.5323 4.22542 14.1469 3.49009 14.1469H1.34994C0.614606 14.1469 0 13.5323 0 12.797C0 12.0617 0.614606 11.447 1.34994 11.447H3.49009C4.22542 11.447 4.84003 12.0617 4.84003 12.797ZM18.4053 18.4053C18.9211 17.8894 19.8101 17.8785 20.3149 18.3943L21.8405 19.9089C22.3673 20.4247 22.3673 21.3027 21.8624 21.8076C21.3356 22.3344 20.4576 22.3453 19.9528 21.8405L18.4272 20.3149C17.9004 19.7881 17.9004 18.9211 18.4053 18.4053ZM7.1887 18.4053C7.68258 18.9211 7.68258 19.7881 7.15578 20.3149L5.64121 21.8295C5.12538 22.3344 4.24737 22.3234 3.72056 21.8076C3.21571 21.2917 3.22668 20.4137 3.74251 19.8979L5.26806 18.3943C5.77291 17.8785 6.6619 17.8894 7.1887 18.4053ZM12.797 20.743C13.5323 20.743 14.1469 21.3576 14.1469 22.0929V24.244C14.1469 24.9794 13.5323 25.594 12.797 25.594C12.0617 25.594 11.447 24.9794 11.447 24.244V22.0929C11.447 21.3576 12.0617 20.743 12.797 20.743Z" fill="#575757"/>
</svg>
