<svg width="23" height="26" viewBox="0 0 23 26" fill="none" xmlns="http://www.w3.org/2000/svg">
<path d="M11.2447 25.59C10.5379 25.59 10.0627 25.066 10.0627 24.3349V22.0561L8.62478 23.0066C8.07642 23.4331 7.44276 23.4209 7.05282 22.8604C6.72381 22.373 6.82129 21.7393 7.40621 21.3737L10.0627 19.7774V18.3395L10.3551 14.367L7.04064 16.5969L5.80988 17.3037L5.73676 20.3989C5.71239 21.0935 5.21278 21.4956 4.62786 21.459C3.94546 21.4103 3.60426 20.8498 3.71393 20.1674L3.82361 18.4735L1.84952 19.5946C1.20368 19.9602 0.533463 19.8262 0.180078 19.1925C-0.185494 18.5832 0.0216635 17.9008 0.655321 17.5352L2.61722 16.3898L1.08182 15.6221C0.448164 15.3784 0.143521 14.8178 0.435978 14.1964C0.691878 13.6602 1.28898 13.4165 1.91045 13.7455L4.61568 15.2443L5.84644 14.5376L9.45341 12.795L5.84644 11.0524L4.60349 10.3457L1.91045 11.8323C1.28898 12.1613 0.691878 11.9298 0.435978 11.3936C0.143521 10.7722 0.448164 10.2116 1.08182 9.95573L2.61722 9.18803L0.655321 8.05476C0.0216635 7.68919 -0.185494 7.03116 0.180078 6.3975C0.521278 5.78821 1.21586 5.6298 1.84952 5.98319L3.82361 7.11646L3.71393 5.39827C3.61645 4.74024 3.94546 4.16751 4.62786 4.13096C5.21278 4.08221 5.71239 4.48434 5.73676 5.17893L5.79769 8.2741L7.04064 8.99306L10.3551 11.2352L10.0627 7.23831V5.81259L7.40621 4.21626C6.82129 3.8385 6.71162 3.21703 7.05282 2.71741C7.44276 2.15687 8.07642 2.14469 8.62478 2.57119L10.0627 3.52167V1.25513C10.0627 0.5118 10.5379 0 11.2447 0C11.9758 0 12.4389 0.499614 12.4389 1.25513V3.52167L13.8646 2.57119C14.413 2.14469 15.0588 2.15687 15.4488 2.71741C15.7656 3.21703 15.6803 3.8385 15.0832 4.21626L12.4389 5.81259V7.23831L12.1464 11.223L15.461 8.99306L16.6917 8.2741L16.7648 5.17893C16.7892 4.48434 17.2888 4.08221 17.8737 4.13096C18.5561 4.16751 18.8973 4.72806 18.7877 5.41046L18.678 7.11646L20.6521 5.98319C21.2979 5.61761 21.9803 5.78821 22.3215 6.3975C22.6749 7.03116 22.4921 7.677 21.8463 8.05476L19.8844 9.18803L21.4198 9.95573C22.0534 10.2116 22.3703 10.7844 22.0778 11.3936C21.8097 11.9298 21.2126 12.1613 20.5912 11.8323L17.8859 10.3335L16.6552 11.0524L13.0482 12.795L16.643 14.5376L17.8859 15.2443L20.5912 13.7577C21.2126 13.4408 21.7975 13.6602 22.0656 14.1964C22.3581 14.8056 22.0413 15.3784 21.4198 15.6221L19.8844 16.3898L21.8463 17.5352C22.4678 17.8886 22.6627 18.571 22.3215 19.1925C21.9681 19.814 21.2979 19.9724 20.6521 19.5946L18.678 18.4614L18.7877 20.1795C18.8852 20.8498 18.5561 21.4103 17.8737 21.459C17.2888 21.5078 16.7892 21.1057 16.7648 20.3989L16.6917 17.3159L15.461 16.6091L12.1464 14.3791L12.4389 18.3395V19.7774L15.0832 21.3737C15.6803 21.7393 15.7778 22.373 15.4488 22.8604C15.0466 23.4209 14.413 23.4331 13.8646 23.0066L12.4389 22.0683V24.3349C12.4389 25.0782 11.9758 25.59 11.2447 25.59Z" fill="#575757"/>
</svg>
