<svg width="26" height="26" viewBox="0 0 26 26" fill="none" xmlns="http://www.w3.org/2000/svg">
<path d="M13 0C5.83 0 0 5.83 0 13C0 20.17 5.83 26 13 26C20.17 26 26 20.17 26 13C26 5.83 20.17 0 13 0ZM18.82 18.81C18.57 19.06 18.18 19.06 17.93 18.81L13.01 13.89L8.09 18.81C7.84 19.06 7.44 19.06 7.2 18.81C6.95 18.56 6.95 18.17 7.2 17.92L12.12 13L7.2 8.08C6.95 7.83 6.95 7.43 7.2 7.19C7.45 6.94 7.85 6.94 8.09 7.19L13.01 12.11L17.93 7.19C18.18 6.94 18.58 6.94 18.82 7.19C19.07 7.44 19.07 7.84 18.82 8.08L13.9 13L18.82 17.92C19.07 18.17 19.07 18.56 18.82 18.81Z" fill="#575757"/>
</svg>
