<svg width="29" height="26" viewBox="0 0 29 26" fill="none" xmlns="http://www.w3.org/2000/svg">
<path d="M28.587 21.33L17.2659 1.59266C16.3624 0.0552657 14.3993 -0.45343 12.8824 0.439614C12.4139 0.722222 12.0236 1.10657 11.7447 1.58135L0.41241 21.33C-0.145282 22.2796 -0.145282 23.4666 0.41241 24.4161C0.981256 25.4109 2.04087 26.01 3.17856 25.9987H25.8209C26.9586 25.9987 28.0182 25.3996 28.587 24.4161C29.1447 23.4666 29.1447 22.2909 28.587 21.33ZM13.4624 15.5987V10.3987C13.4624 9.82222 13.9309 9.35874 14.4997 9.35874C15.0686 9.35874 15.537 9.82222 15.537 10.3987V15.5987C15.537 16.1753 15.0686 16.6387 14.4997 16.6387C13.9309 16.6387 13.4624 16.1753 13.4624 15.5987ZM16.0501 20.2787C16.0501 21.1379 15.3586 21.8387 14.4997 21.8387C13.6409 21.8387 12.9493 21.1379 12.9493 20.2787C12.9493 19.4196 13.6409 18.7187 14.4997 18.7187C15.3586 18.7187 16.0501 19.4196 16.0501 20.2787Z" fill="#575757"/>
</svg>
