<svg width="26" height="26" viewBox="0 0 26 26" fill="none" xmlns="http://www.w3.org/2000/svg">
<path d="M7.18452 7.18518C7.43059 6.93913 7.82958 6.93913 8.07533 7.18518L12.9991 12.1085L17.9234 7.18454C18.1695 6.93849 18.5688 6.93849 18.8149 7.18454C19.061 7.4306 19.061 7.82987 18.8149 8.07593L13.8905 12.9999L18.8149 17.9239C19.061 18.1696 19.0613 18.5686 18.8155 18.8146C18.5698 19.0607 18.1708 19.061 17.9247 18.8153L12.9991 13.8913L8.07533 18.8143C7.82926 19.06 7.43027 19.06 7.18452 18.8137C6.93876 18.5676 6.93876 18.1693 7.18452 17.9236L12.1076 12.9996L7.18387 8.07657C6.93844 7.82987 6.93876 7.43156 7.18452 7.18518Z" fill="#575757"/>
<circle cx="13" cy="13" r="12.25" stroke="#575757" stroke-width="1.5"/>
</svg>
