<svg width="30" height="26" viewBox="0 0 30 26" fill="none" xmlns="http://www.w3.org/2000/svg">
<path d="M28.5929 21.33L17.2717 1.59266C16.3683 0.0552657 14.4052 -0.45343 12.8883 0.439614C12.4198 0.722222 12.0294 1.10657 11.7506 1.58135L0.418269 21.33C-0.139423 22.2796 -0.139423 23.4666 0.418269 24.4161C0.987115 25.4109 2.04673 26.01 3.18442 25.9987H25.8267C26.9644 25.9987 28.024 25.3996 28.5929 24.4161C29.1506 23.4666 29.1506 22.2909 28.5929 21.33ZM27.1652 23.6814C26.9533 24.0318 26.574 24.2466 26.1725 24.2466H2.84981C2.43712 24.2466 2.05788 24.0431 1.85712 23.6814C1.6675 23.3648 1.6675 22.9692 1.85712 22.6527L13.5129 2.31614C13.8475 1.76222 14.5613 1.58135 15.119 1.92048C15.2863 2.02222 15.4202 2.15787 15.5206 2.31614L27.1875 22.6527C27.3771 22.9692 27.3771 23.3648 27.1875 23.6814H27.1652ZM13.4683 15.5987V10.3987C13.4683 9.82222 13.9367 9.35874 14.5056 9.35874C15.0744 9.35874 15.5429 9.82222 15.5429 10.3987V15.5987C15.5429 16.1753 15.0744 16.6387 14.5056 16.6387C13.9367 16.6387 13.4683 16.1753 13.4683 15.5987ZM16.056 20.2787C16.056 21.1379 15.3644 21.8387 14.5056 21.8387C13.6467 21.8387 12.9552 21.1379 12.9552 20.2787C12.9552 19.4196 13.6467 18.7187 14.5056 18.7187C15.3644 18.7187 16.056 19.4196 16.056 20.2787Z" fill="#575757"/>
</svg>
