<svg width="26" height="26" viewBox="0 0 26 26" fill="none" xmlns="http://www.w3.org/2000/svg">
<path d="M13 0C5.83 0 0 5.83 0 13C0 20.17 5.83 26 13 26C20.17 26 26 20.17 26 13C26 5.83 20.17 0 13 0ZM13.93 17.6C13.93 18.11 13.51 18.52 13 18.52C12.49 18.52 12.07 18.11 12.07 17.6V13C12.07 12.49 12.49 12.08 13 12.08C13.51 12.08 13.93 12.49 13.93 13V17.6ZM13 10.24C12.23 10.24 11.61 9.62 11.61 8.86C11.61 8.1 12.23 7.48 13 7.48C13.77 7.48 14.39 8.1 14.39 8.86C14.39 9.62 13.77 10.24 13 10.24Z" fill="#575757"/>
</svg>
