<svg width="26" height="26" viewBox="0 0 26 26" fill="none" xmlns="http://www.w3.org/2000/svg">
<path d="M13 26C5.83 26 0 20.17 0 13C0 5.83 5.83 0 13 0C20.17 0 26 5.83 26 13C26 20.17 20.17 26 13 26ZM13 1.5C6.66 1.5 1.5 6.66 1.5 13C1.5 19.34 6.66 24.5 13 24.5C19.34 24.5 24.5 19.34 24.5 13C24.5 6.66 19.34 1.5 13 1.5Z" fill="#575757"/>
<path d="M13.9303 13.0001V17.6001C13.9303 18.1101 13.5103 18.5201 13.0003 18.5201C12.4903 18.5201 12.0703 18.1101 12.0703 17.6001V13.0001C12.0703 12.4901 12.4903 12.0801 13.0003 12.0801C13.5103 12.0801 13.9303 12.4901 13.9303 13.0001Z" fill="#575757"/>
<path d="M11.6104 8.86047C11.6104 8.10047 12.2304 7.48047 13.0004 7.48047C13.7704 7.48047 14.3904 8.10047 14.3904 8.86047C14.3904 9.62047 13.7704 10.2405 13.0004 10.2405C12.2304 10.2405 11.6104 9.62047 11.6104 8.86047Z" fill="#575757"/>
</svg>
