<svg width="18" height="26" viewBox="0 0 18 26" fill="none" xmlns="http://www.w3.org/2000/svg">
<g clip-path="url(#clip0_12328_8588)">
<path d="M1 25.4C0.45 25.4 0 24.95 0 24.4V21.8C0 18.39 2.74 15.6 6.14 15.6H11.28C14.68 15.6 17.42 18.39 17.42 21.8V24.4C17.42 24.95 16.97 25.4 16.42 25.4H1ZM14.86 6.2C14.86 9.61 12.12 12.4 8.72 12.4C5.42 12.4 2.75 9.79 2.59 6.52V6.2C2.57 2.79 5.31 0 8.71 0C12.11 0 14.85 2.79 14.85 6.2H14.86Z" fill="#575757"/>
</g>
<defs>
<clipPath id="clip0_12328_8588">
<rect width="17.43" height="25.4" fill="white"/>
</clipPath>
</defs>
</svg>
