<svg width="18" height="26" viewBox="0 0 18 26" fill="none" xmlns="http://www.w3.org/2000/svg">
<path d="M15.4277 24.3994V21.7998C15.4277 19.4702 13.5628 17.5996 11.2852 17.5996H6.14258C3.8654 17.5996 2 19.4698 2 21.7998V24.3994C2 24.9517 1.55228 25.3994 1 25.3994C0.447715 25.3994 0 24.9517 0 24.3994V21.7998C0 18.3859 2.7402 15.5996 6.14258 15.5996H11.2852C14.6883 15.5996 17.4277 18.3867 17.4277 21.7998V24.3994C17.4277 24.9517 16.98 25.3994 16.4277 25.3994C15.8755 25.3994 15.4277 24.9517 15.4277 24.3994ZM12.8564 6.2002C12.8564 3.87053 10.9913 2 8.71387 2C6.43638 2.00018 4.57129 3.87071 4.57129 6.2002C4.57129 8.53013 6.43683 10.4002 8.71387 10.4004C10.991 10.4004 12.8564 8.52971 12.8564 6.2002ZM14.8564 6.2002C14.8564 9.61338 12.1163 12.4004 8.71387 12.4004C5.41796 12.4002 2.74305 9.78556 2.5791 6.51855L2.57129 6.2002C2.57129 2.7872 5.31088 0.000181425 8.71387 0C12.1171 0 14.8564 2.78732 14.8564 6.2002Z" fill="#575757"/>
</svg>
