<svg width="27" height="28" viewBox="0 0 27 28" fill="none" xmlns="http://www.w3.org/2000/svg">
<g clip-path="url(#clip0_12328_8594)">
<path d="M13.3002 10.2695C11.3402 10.2695 9.74023 11.8495 9.74023 13.7995C9.74023 15.7495 11.3402 17.3295 13.3002 17.3295C15.2602 17.3295 16.8602 15.7495 16.8602 13.7995C16.8602 11.8495 15.2602 10.2695 13.3002 10.2695Z" fill="#575757"/>
<path d="M24.3803 15.3814C24.3003 15.3114 24.2203 15.2414 24.1503 15.1614C23.7903 14.7414 23.6103 14.2014 23.6503 13.6414C23.6903 13.0814 23.9503 12.5814 24.3803 12.2114L26.3103 10.5614C26.5503 10.3514 26.6503 10.0214 26.5603 9.71141C25.9503 7.75141 24.8803 5.91141 23.4703 4.41141C23.2503 4.18141 22.9203 4.10141 22.6203 4.20141L20.2203 5.04141C20.1203 5.08141 20.0103 5.10141 19.9103 5.12141C18.7703 5.33141 17.6603 4.58141 17.4503 3.45141L16.9803 0.971406C16.9203 0.661406 16.6803 0.411406 16.3703 0.341406C14.3703 -0.108594 12.2303 -0.108594 10.2203 0.341406C9.91027 0.411406 9.67027 0.661406 9.61027 0.971406L9.14027 3.45141C9.12027 3.55141 9.09027 3.66141 9.06027 3.76141C8.67027 4.85141 7.47027 5.42141 6.37027 5.04141L3.97027 4.20141C3.67027 4.09141 3.34027 4.18141 3.12027 4.41141C1.72027 5.92141 0.650274 7.76141 0.0402735 9.72141C-0.0597265 10.0314 0.0402735 10.3614 0.290273 10.5714L2.22027 12.2214C2.30027 12.2914 2.38027 12.3714 2.45027 12.4514C2.82027 12.8714 2.99027 13.4114 2.95027 13.9714C2.91027 14.5314 2.65027 15.0314 2.22027 15.4014L0.290273 17.0514C0.0502735 17.2614 -0.0497265 17.5914 0.0402735 17.9014C0.650274 19.8614 1.72027 21.7014 3.13027 23.2014C3.35027 23.4314 3.68027 23.5114 3.98027 23.4114L6.37027 22.5714C6.47027 22.5314 6.58027 22.5114 6.69027 22.4914C7.84027 22.2914 8.94027 23.0314 9.15027 24.1614L9.62027 26.6414C9.68027 26.9514 9.92027 27.2014 10.2303 27.2714C11.2403 27.5014 12.2703 27.6114 13.3103 27.6114C14.3503 27.6114 15.3803 27.5014 16.3903 27.2714C16.7003 27.2014 16.9403 26.9514 17.0003 26.6414L17.4603 24.1614C17.4803 24.0614 17.5103 23.9514 17.5403 23.8514C17.9303 22.7614 19.1303 22.1914 20.2303 22.5714L22.6303 23.4114C22.9303 23.5114 23.2603 23.4314 23.4803 23.2014C24.8903 21.6914 25.9503 19.8614 26.5703 17.9014C26.6703 17.5914 26.5703 17.2614 26.3203 17.0514L24.3903 15.4014L24.3803 15.3814ZM13.3003 18.9314C10.4503 18.9314 8.14027 16.6314 8.14027 13.8014C8.14027 10.9714 10.4503 8.67141 13.3003 8.67141C16.1503 8.67141 18.4603 10.9714 18.4603 13.8014C18.4603 16.6314 16.1503 18.9314 13.3003 18.9314Z" fill="#575757"/>
</g>
<defs>
<clipPath id="clip0_12328_8594">
<rect width="26.6" height="27.6" fill="white"/>
</clipPath>
</defs>
</svg>
