<svg width="26" height="26" viewBox="0 0 26 26" fill="none" xmlns="http://www.w3.org/2000/svg">
<g clip-path="url(#clip0_12328_8571)">
<path d="M18.4658 10.3994C18.4658 5.94467 14.8547 2.33217 10.4004 2.33203C5.9457 2.33203 2.33301 5.9442 2.33301 10.3994C2.33314 14.8539 5.9449 18.4648 10.3994 18.4648C14.854 18.4648 18.4657 14.8539 18.4658 10.3994ZM20.5332 10.3994C20.5331 12.825 19.6793 15.0505 18.2578 16.7949L25.4307 23.9678C25.8342 24.3714 25.8343 25.0261 25.4307 25.4297C25.0271 25.8333 24.3724 25.8332 23.9688 25.4297L16.7959 18.2568C15.0514 19.6787 12.8254 20.5322 10.3994 20.5322C4.80325 20.5322 0.266738 15.9956 0.266602 10.3994C0.266602 4.80246 4.80413 0.265625 10.4004 0.265625C15.9968 0.265761 20.5332 4.80338 20.5332 10.3994Z" fill="#575757"/>
</g>
<defs>
<clipPath id="clip0_12328_8571">
<rect width="26" height="26" fill="white"/>
</clipPath>
</defs>
</svg>
