<svg width="27" height="29" viewBox="0 0 27 29" fill="none" xmlns="http://www.w3.org/2000/svg">
<path d="M10.3369 0.350022C12.2389 -0.087893 14.2096 -0.11471 16.1201 0.268507L16.501 0.350022L17.0137 0.468318L17.1104 0.994187L17.5791 3.52214L17.6289 3.73288C17.9288 4.76425 18.9612 5.42562 20.0381 5.22202C20.1428 5.2023 20.249 5.17364 20.3545 5.13653L22.748 4.2846L23.2412 4.10964L23.5967 4.49733C25.0126 6.03985 26.0682 7.88587 26.6846 9.89719L26.8418 10.4111L24.5068 12.4361C23.6254 13.2007 23.5244 14.5392 24.2783 15.4293L24.2793 15.4302C24.3488 15.5124 24.4245 15.5895 24.5059 15.6599L26.8418 17.6838L26.6846 18.1978C26.0682 20.2091 25.0126 22.0551 23.5967 23.5976L23.2412 23.9853L20.3506 22.9574C19.2481 22.5652 18.0455 23.1525 17.6611 24.2577V24.2597C17.6437 24.3095 17.628 24.3606 17.6143 24.4128L17.5781 24.5718L17.0176 27.6266L16.5049 27.7449C14.4763 28.212 12.3694 28.212 10.3408 27.7449L9.82812 27.6266L9.73145 27.1008L9.2627 24.5728C9.05008 23.4226 7.95229 22.6558 6.80371 22.8729C6.69898 22.8927 6.59279 22.9213 6.4873 22.9584L4.09375 23.8104L3.60059 23.9853L3.24512 23.5976C1.82922 22.0551 0.773598 20.2091 0.157227 18.1978L0 17.6838L2.33496 15.6589L2.49121 15.5098C3.22591 14.7295 3.26939 13.4997 2.56152 12.6657C2.49012 12.5819 2.4147 12.5051 2.33594 12.4371L2.33496 12.4361L0 10.4121L0.157227 9.89818C0.77287 7.88686 1.8272 6.04095 3.24316 4.49833L3.59961 4.11063L5.42578 4.75878L6.46484 5.12857L6.49023 5.13752L6.69824 5.19915C7.74003 5.45365 8.81832 4.87316 9.17871 3.83726L9.17969 3.83527C9.21455 3.73576 9.24181 3.63129 9.26172 3.52313L9.82422 0.468318L10.3369 0.350022ZM15.6377 1.83319C14.1708 1.56099 12.6671 1.56094 11.2002 1.83319L10.835 3.82235C10.8005 4.00963 10.7507 4.19645 10.6865 4.38003C10.1297 5.98114 8.61395 6.95522 7.02637 6.88313V7.05411L5.97168 6.67835C5.96854 6.67724 5.96505 6.67648 5.96191 6.67537L4.06836 6.00237C3.10306 7.14752 2.35199 8.46062 1.85156 9.87731L3.37109 11.1955C3.51653 11.3212 3.64989 11.4572 3.77148 11.6L3.77246 11.601C5.10892 13.1756 4.92882 15.5488 3.37305 16.8985L3.37207 16.8995L1.85156 18.2167C2.35244 19.6337 3.10379 20.9471 4.06934 22.0926L5.96289 21.4196H5.96484C6.14125 21.3575 6.32368 21.3069 6.51172 21.2715L6.69922 21.2407C8.63821 20.9759 10.4693 22.2937 10.835 24.2716L11.2031 26.2608C12.6701 26.5331 14.1736 26.533 15.6406 26.2608L16.0059 24.2726L16.0684 23.9913C16.093 23.8977 16.121 23.8042 16.1533 23.7119C16.8352 21.7549 18.9521 20.7346 20.8779 21.4196L22.7705 22.0926C23.7363 20.9471 24.4873 19.6338 24.9883 18.2167L23.4697 16.9005C23.3976 16.838 23.3279 16.7726 23.2607 16.7047L23.0664 16.4929C21.7322 14.9176 21.9133 12.5459 23.4688 11.1965L23.4697 11.1955L24.9893 9.87731C24.4882 8.46033 23.7372 7.14677 22.7715 6.00138L20.8789 6.67537H20.877C20.7886 6.70645 20.6987 6.73515 20.6074 6.75986L20.3301 6.82348C18.323 7.20284 16.3842 5.86488 16.0068 3.82334L15.6377 1.83319ZM16.9814 14.0475C16.9813 12.0664 15.3922 10.4519 13.4209 10.4519C11.4496 10.4519 9.86054 12.0664 9.86035 14.0475C9.86035 16.0288 11.4494 17.6441 13.4209 17.6441C15.3924 17.6441 16.9814 16.0288 16.9814 14.0475ZM18.5811 14.0475C18.5811 16.9381 16.2663 19.2724 13.4209 19.2724C10.5755 19.2724 8.26074 16.9381 8.26074 14.0475C8.26093 11.157 10.5756 8.82358 13.4209 8.82358C16.2662 8.82358 18.5809 11.157 18.5811 14.0475Z" fill="#575757"/>
</svg>
