<svg width="26" height="26" viewBox="0 0 26 26" fill="none" xmlns="http://www.w3.org/2000/svg">
<g clip-path="url(#clip0_12328_8607)">
<path d="M21.4114 9.17639C23.9454 9.17639 25.9996 7.12218 25.9996 4.58819C25.9996 2.0542 23.9454 0 21.4114 0C18.8774 0 16.8232 2.0542 16.8232 4.58819C16.8232 7.12218 18.8774 9.17639 21.4114 9.17639Z" fill="#575757"/>
<path d="M13.7646 4.58833C13.7646 3.49935 13.9983 2.46701 14.4098 1.5293H3.05903C1.37216 1.5293 0 2.90145 0 4.58833V22.9411C0 24.628 1.37216 26.0001 3.05903 26.0001H21.4118C23.0987 26.0001 24.4708 24.628 24.4708 22.9411V11.5896C23.5073 12.0148 22.4657 12.2348 21.4118 12.2348C17.1885 12.2348 13.7646 8.8109 13.7646 4.58761V4.58833Z" fill="#575757"/>
</g>
<defs>
<clipPath id="clip0_12328_8607">
<rect width="26" height="26" fill="white"/>
</clipPath>
</defs>
</svg>
