<svg width="26" height="26" viewBox="0 0 26 26" fill="none" xmlns="http://www.w3.org/2000/svg">
<g clip-path="url(#clip0_12328_8577)">
<path d="M13.3344 1.5293H3.05903C1.36929 1.5293 0 2.8993 0 4.58833V22.9411C0 24.6301 1.36929 26.0001 3.05903 26.0001H21.4118C23.1008 26.0001 24.4708 24.6308 24.4708 22.9411V12.665C24.4708 12.0714 23.9891 11.5896 23.3955 11.5896C22.8019 11.5896 22.3201 12.0714 22.3201 12.665V22.9411C22.3201 23.4429 21.9136 23.8494 21.4118 23.8494H3.05903C2.5572 23.8494 2.15072 23.4429 2.15072 22.9411V4.58833C2.15072 4.0865 2.5572 3.68001 3.05903 3.68001H13.3352C13.9288 3.68001 14.4105 3.19825 14.4105 2.60465C14.4105 2.01106 13.9288 1.5293 13.3352 1.5293H13.3344Z" fill="#575757"/>
<path d="M21.4114 2.15072C22.7556 2.15072 23.8489 3.244 23.8489 4.58819C23.8489 5.93239 22.7556 7.02567 21.4114 7.02567C20.0672 7.02567 18.974 5.93239 18.974 4.58819C18.974 3.244 20.0672 2.15072 21.4114 2.15072ZM21.4114 0C18.8772 0 16.8232 2.05393 16.8232 4.58819C16.8232 7.12245 18.8772 9.17639 21.4114 9.17639C23.9457 9.17639 25.9996 7.12245 25.9996 4.58819C25.9996 2.05393 23.945 0 21.4114 0Z" fill="#575757"/>
</g>
<defs>
<clipPath id="clip0_12328_8577">
<rect width="26" height="26" fill="white"/>
</clipPath>
</defs>
</svg>
