<svg width="26" height="26" viewBox="0 0 26 26" fill="none" xmlns="http://www.w3.org/2000/svg">
<g clip-path="url(#clip0_12328_8830)">
<path d="M25.1517 0.84835C24.5877 0.28439 23.8984 0 23.0886 0H2.91138C2.09677 0 1.41231 0.28439 0.84835 0.84835C0.28439 1.41231 0 2.09677 0 2.91138V23.0886C0 23.9032 0.28439 24.5877 0.84835 25.1517C1.41231 25.7156 2.10159 26 2.91138 26H23.0886C23.9032 26 24.5877 25.7156 25.1517 25.1517C25.7156 24.5877 26 23.8984 26 23.0886V2.91138C26 2.09677 25.7156 1.41231 25.1517 0.84835ZM11.4286 20.0567C11.8624 20.0567 12.2143 20.4086 12.2143 20.8424C12.2143 21.2762 11.8624 21.6281 11.4286 21.6281H5.17686C4.9696 21.6329 4.75751 21.5558 4.59844 21.3967C4.43938 21.2377 4.36225 21.0304 4.36707 20.8183V14.5666C4.36707 14.1327 4.71895 13.7809 5.15276 13.7809C5.58658 13.7809 5.93845 14.1327 5.93845 14.5666V18.9481L10.8743 14.0122C11.1828 13.7037 11.6793 13.7037 11.9829 14.0122C12.2914 14.3207 12.2914 14.8172 11.9829 15.1209L7.04709 20.0567H11.4286ZM21.6281 11.4334C21.6281 11.8673 21.2762 12.2191 20.8424 12.2191C20.4086 12.2191 20.0567 11.8673 20.0567 11.4334V7.05191L15.1209 11.9878C14.8124 12.2963 14.3159 12.2963 14.0122 11.9878C13.7037 11.6793 13.7037 11.1828 14.0122 10.8791L18.9481 5.94327H14.5666C14.1327 5.94327 13.7809 5.5914 13.7809 5.15758C13.7809 4.72377 14.1327 4.37189 14.5666 4.37189H20.8183C21.0256 4.36707 21.2377 4.4442 21.3967 4.60326C21.5558 4.76233 21.6329 4.9696 21.6281 5.18168V11.4334Z" fill="#575757"/>
</g>
<defs>
<clipPath id="clip0_12328_8830">
<rect width="26" height="26" fill="white"/>
</clipPath>
</defs>
</svg>
