<svg width="30" height="21" viewBox="0 0 30 21" fill="none" xmlns="http://www.w3.org/2000/svg">
<g clip-path="url(#clip0_12328_8775)">
<path d="M28.5751 3.33902H7.61696C6.82925 3.33902 6.19238 2.69495 6.19238 1.90681C6.19238 1.11868 6.82925 0.474609 7.61696 0.474609H28.5667C29.3544 0.474609 29.9913 1.11868 29.9913 1.90681C29.9913 2.69495 29.3544 3.33902 28.5667 3.33902H28.5751Z" fill="#575757"/>
<path d="M1.88547 3.81356C2.92679 3.81356 3.77095 2.95987 3.77095 1.90678C3.77095 0.853694 2.92679 0 1.88547 0C0.844156 0 0 0.853694 0 1.90678C0 2.95987 0.844156 3.81356 1.88547 3.81356Z" fill="#575757"/>
<path d="M28.5751 11.9328H7.61696C6.82925 11.9328 6.19238 11.2887 6.19238 10.5006C6.19238 9.71243 6.82925 9.06836 7.61696 9.06836H28.5667C29.3544 9.06836 29.9913 9.71243 29.9913 10.5006C29.9913 11.2887 29.3544 11.9328 28.5667 11.9328H28.5751Z" fill="#575757"/>
<path d="M1.88547 12.4073C2.92679 12.4073 3.77095 11.5536 3.77095 10.5005C3.77095 9.44744 2.92679 8.59375 1.88547 8.59375C0.844156 8.59375 0 9.44744 0 10.5005C0 11.5536 0.844156 12.4073 1.88547 12.4073Z" fill="#575757"/>
<path d="M28.5751 20.5246H7.61696C6.82925 20.5246 6.19238 19.8805 6.19238 19.0924C6.19238 18.3042 6.82925 17.6602 7.61696 17.6602H28.5667C29.3544 17.6602 29.9913 18.3042 29.9913 19.0924C29.9913 19.8805 29.3544 20.5246 28.5667 20.5246H28.5751Z" fill="#575757"/>
<path d="M1.88547 20.9991C2.92679 20.9991 3.77095 20.1454 3.77095 19.0923C3.77095 18.0392 2.92679 17.1855 1.88547 17.1855C0.844156 17.1855 0 18.0392 0 19.0923C0 20.1454 0.844156 20.9991 1.88547 20.9991Z" fill="#575757"/>
</g>
<defs>
<clipPath id="clip0_12328_8775">
<rect width="30" height="21" fill="white"/>
</clipPath>
</defs>
</svg>
