<svg width="26" height="26" viewBox="0 0 26 26" fill="none" xmlns="http://www.w3.org/2000/svg">
<g clip-path="url(#clip0_12328_8818)">
<path d="M9.46681 12.3589H2.8921C1.29663 12.3589 0 11.0623 0 9.46681V2.8921C0 1.29663 1.29663 0 2.8921 0H9.46681C11.0623 0 12.3589 1.29663 12.3589 2.8921V9.46681C12.3589 11.0623 11.0623 12.3589 9.46681 12.3589ZM26 9.46681V2.8921C26 1.29663 24.7034 0 23.1079 0H16.5332C14.9377 0 13.6411 1.29663 13.6411 2.8921V9.46681C13.6411 11.0623 14.9377 12.3589 16.5332 12.3589H23.1079C24.7034 12.3589 26 11.0623 26 9.46681ZM12.3589 23.1079V16.5332C12.3589 14.9377 11.0623 13.6411 9.46681 13.6411H2.8921C1.29663 13.6411 0 14.9377 0 16.5332V23.1079C0 24.7034 1.29663 26 2.8921 26H9.46681C11.0623 26 12.3589 24.7034 12.3589 23.1079ZM26 23.1079V16.5332C26 14.9377 24.7034 13.6411 23.1079 13.6411H16.5332C14.9377 13.6411 13.6411 14.9377 13.6411 16.5332V23.1079C13.6411 24.7034 14.9377 26 16.5332 26H23.1079C24.7034 26 26 24.7034 26 23.1079Z" fill="#575757"/>
</g>
<defs>
<clipPath id="clip0_12328_8818">
<rect width="26" height="26" fill="white"/>
</clipPath>
</defs>
</svg>
