<svg width="26" height="26" viewBox="0 0 26 26" fill="none" xmlns="http://www.w3.org/2000/svg">
<g clip-path="url(#clip0_12328_8836)">
<path d="M25.1517 0.84835C24.5877 0.28439 23.8984 0 23.0886 0H2.91138C2.09677 0 1.41231 0.28439 0.84835 0.84835C0.28439 1.41231 0 2.09677 0 2.91138V23.0886C0 23.9032 0.28439 24.5877 0.84835 25.1517C1.41231 25.7156 2.10159 26 2.91138 26H23.0886C23.9032 26 24.5877 25.7156 25.1517 25.1517C25.7156 24.5877 26 23.8984 26 23.0886V2.91138C26 2.09677 25.7156 1.41231 25.1517 0.84835ZM12.2143 20.8424C12.2143 21.2762 11.8624 21.6281 11.4286 21.6281C10.9948 21.6281 10.6429 21.2762 10.6429 20.8424V16.4609L5.70708 21.3967C5.39859 21.7052 4.90211 21.7052 4.59844 21.3967C4.28995 21.0882 4.28995 20.5918 4.59844 20.2881L9.5343 15.3522H5.15276C4.71895 15.3522 4.36707 15.0004 4.36707 14.5666C4.36707 14.1327 4.71895 13.7809 5.15276 13.7809H11.4045C11.6118 13.776 11.8239 13.8532 11.9829 14.0122C12.142 14.1713 12.2191 14.3786 12.2143 14.5907V20.8424ZM20.8424 10.6478C21.2762 10.6478 21.6281 10.9996 21.6281 11.4334C21.6281 11.8673 21.2762 12.2191 20.8424 12.2191H14.5907C14.3834 12.224 14.1713 12.1468 14.0122 11.9878C13.8532 11.8287 13.776 11.6214 13.7809 11.4093V5.15758C13.7809 4.72377 14.1327 4.37189 14.5666 4.37189C15.0004 4.37189 15.3522 4.72377 15.3522 5.15758V9.53912L20.2881 4.60326C20.5966 4.29477 21.0931 4.29477 21.3967 4.60326C21.7052 4.91175 21.7052 5.40823 21.3967 5.7119L16.4609 10.6478H20.8424Z" fill="#575757"/>
</g>
<defs>
<clipPath id="clip0_12328_8836">
<rect width="26" height="26" fill="white"/>
</clipPath>
</defs>
</svg>
