<svg width="26" height="26" viewBox="0 0 26 26" fill="none" xmlns="http://www.w3.org/2000/svg">
<g clip-path="url(#clip0_12328_8803)">
<path d="M12.9997 14.2773C12.5128 14.2773 12.1181 14.6721 12.1181 15.159V22.9922L8.64232 19.5164C8.29846 19.1725 7.7414 19.1725 7.39754 19.5164C7.05368 19.8603 7.05368 20.4173 7.39754 20.7612L12.3608 25.7245C12.5218 25.8936 12.748 25.9996 12.9997 25.9996C13.2514 25.9996 13.4784 25.8936 13.6386 25.7245L18.6019 20.7612C18.9458 20.4173 18.9458 19.8603 18.6019 19.5164C18.258 19.1725 17.701 19.1725 17.3571 19.5164L13.8814 22.9922V15.159C13.8814 14.6721 13.4866 14.2773 12.9997 14.2773Z" fill="#575757"/>
<path d="M12.9997 0C12.748 0 12.5211 0.105909 12.3608 0.275089L7.39754 5.23838C7.05368 5.58224 7.05368 6.13929 7.39754 6.48315C7.7414 6.82701 8.29846 6.82701 8.64232 6.48315L12.1181 3.00741V10.8406C12.1181 11.3275 12.5128 11.7222 12.9997 11.7222C13.4866 11.7222 13.8814 11.3275 13.8814 10.8406V3.00741L17.3571 6.48315C17.701 6.82701 18.258 6.82701 18.6019 6.48315C18.9458 6.13929 18.9458 5.58224 18.6019 5.23838L13.6386 0.275089C13.4777 0.105909 13.2514 0 12.9997 0Z" fill="#575757"/>
<path d="M14.2773 13.0007C14.2773 13.4876 14.6721 13.8824 15.159 13.8824H22.9922L19.5164 17.3581C19.1725 17.702 19.1725 18.259 19.5164 18.6029C19.8603 18.9467 20.4173 18.9467 20.7612 18.6029L25.7245 13.6396C25.8936 13.4787 25.9996 13.2524 25.9996 13.0007C25.9996 12.749 25.8936 12.522 25.7245 12.3618L20.7612 7.39852C20.4173 7.05466 19.8603 7.05466 19.5164 7.39852C19.1725 7.74238 19.1725 8.29944 19.5164 8.6433L22.9922 12.119H15.159C14.6721 12.119 14.2773 12.5138 14.2773 13.0007Z" fill="#575757"/>
<path d="M0 13.0007C0 13.2524 0.105909 13.4794 0.275089 13.6396L5.23838 18.6029C5.58224 18.9467 6.13929 18.9467 6.48315 18.6029C6.82701 18.259 6.82701 17.702 6.48315 17.3581L3.00741 13.8824H10.8406C11.3275 13.8824 11.7222 13.4876 11.7222 13.0007C11.7222 12.5138 11.3275 12.119 10.8406 12.119H3.00741L6.48315 8.6433C6.82701 8.29944 6.82701 7.74238 6.48315 7.39852C6.13929 7.05466 5.58224 7.05466 5.23838 7.39852L0.275089 12.3618C0.105909 12.522 0 12.749 0 13.0007Z" fill="#575757"/>
</g>
<defs>
<clipPath id="clip0_12328_8803">
<rect width="26" height="26" fill="white"/>
</clipPath>
</defs>
</svg>
