<svg width="26" height="26" viewBox="0 0 26 26" fill="none" xmlns="http://www.w3.org/2000/svg">
<g clip-path="url(#clip0_12328_8789)">
<path d="M11.4728 14.5266C11.0103 14.064 10.2615 14.064 9.79988 14.5266L2.363 21.9626V15.3631C2.363 14.7103 1.83397 14.1813 1.18122 14.1813C0.528475 14.1813 -0.000554918 14.7113 -0.000554918 15.3631V24.7859C-0.00886428 25.0989 0.10562 25.4146 0.344745 25.6538C0.58387 25.8929 0.899626 26.0074 1.21261 25.9991H10.6354C11.2882 25.9991 11.8172 25.47 11.8172 24.8173C11.8172 24.1645 11.2882 23.6355 10.6354 23.6355H4.03687L11.4728 16.1996C11.9354 15.737 11.9354 14.9882 11.4728 14.5266Z" fill="#575757"/>
<path d="M25.6538 0.345722C25.4146 0.106597 25.0989 -0.00788772 24.7859 0.000421644H15.3631C14.7103 0.000421644 14.1813 0.529451 14.1813 1.1822C14.1813 1.83494 14.7103 2.36397 15.3631 2.36397H21.9626L14.5266 9.79993C14.064 10.2625 14.064 11.0113 14.5266 11.4729C14.9892 11.9345 15.7379 11.9354 16.1996 11.4729L23.6355 4.03693V10.6364C23.6355 11.2892 24.1645 11.8182 24.8173 11.8182C25.47 11.8182 25.9991 11.2892 25.9991 10.6364V1.21359C26.0074 0.900603 25.8929 0.584847 25.6538 0.345722Z" fill="#575757"/>
</g>
<defs>
<clipPath id="clip0_12328_8789">
<rect width="26" height="26" fill="white"/>
</clipPath>
</defs>
</svg>
