<svg width="26" height="26" viewBox="0 0 26 26" fill="none" xmlns="http://www.w3.org/2000/svg">
<path d="M23.1079 1.44605C23.9032 1.44605 24.5539 2.09677 24.5539 2.8921V9.46681C24.5539 10.2621 23.9032 10.9129 23.1079 10.9129H16.5332C15.7379 10.9129 15.0871 10.2621 15.0871 9.46681V2.8921C15.0871 2.09677 15.7379 1.44605 16.5332 1.44605H23.1079ZM9.46681 1.44605C10.2621 1.44605 10.9129 2.09677 10.9129 2.8921V9.46681C10.9129 10.2621 10.2621 10.9129 9.46681 10.9129H2.8921C2.09677 10.9129 1.44605 10.2621 1.44605 9.46681V2.8921C1.44605 2.09677 2.09677 1.44605 2.8921 1.44605H9.46681ZM23.1079 15.0871C23.9032 15.0871 24.5539 15.7379 24.5539 16.5332V23.1079C24.5539 23.9032 23.9032 24.5539 23.1079 24.5539H16.5332C15.7379 24.5539 15.0871 23.9032 15.0871 23.1079V16.5332C15.0871 15.7379 15.7379 15.0871 16.5332 15.0871H23.1079ZM9.46681 15.0871C10.2621 15.0871 10.9129 15.7379 10.9129 16.5332V23.1079C10.9129 23.9032 10.2621 24.5539 9.46681 24.5539H2.8921C2.09677 24.5539 1.44605 23.9032 1.44605 23.1079V16.5332C1.44605 15.7379 2.09677 15.0871 2.8921 15.0871H9.46681ZM23.1079 0H16.5332C14.9377 0 13.6411 1.29663 13.6411 2.8921V9.46681C13.6411 11.0623 14.9377 12.3589 16.5332 12.3589H23.1079C24.7034 12.3589 26 11.0623 26 9.46681V2.8921C26 1.29663 24.7034 0 23.1079 0ZM9.46681 0H2.8921C1.29663 0 0 1.29663 0 2.8921V9.46681C0 11.0623 1.29663 12.3589 2.8921 12.3589H9.46681C11.0623 12.3589 12.3589 11.0623 12.3589 9.46681V2.8921C12.3589 1.29663 11.0623 0 9.46681 0ZM23.1079 13.6411H16.5332C14.9377 13.6411 13.6411 14.9377 13.6411 16.5332V23.1079C13.6411 24.7034 14.9377 26 16.5332 26H23.1079C24.7034 26 26 24.7034 26 23.1079V16.5332C26 14.9377 24.7034 13.6411 23.1079 13.6411ZM9.46681 13.6411H2.8921C1.29663 13.6411 0 14.9377 0 16.5332V23.1079C0 24.7034 1.29663 26 2.8921 26H9.46681C11.0623 26 12.3589 24.7034 12.3589 23.1079V16.5332C12.3589 14.9377 11.0623 13.6411 9.46681 13.6411Z" fill="#575757"/>
</svg>
