<svg width="26" height="26" viewBox="0 0 26 26" fill="none" xmlns="http://www.w3.org/2000/svg">
<g clip-path="url(#clip0_12328_8796)">
<path d="M0.345939 25.6526C0.808494 26.1151 1.55726 26.1151 2.01889 25.6526L9.45485 18.2166V24.8161C9.45485 25.4688 9.98388 25.9979 10.6366 25.9979C11.2894 25.9979 11.8184 25.4688 11.8184 24.8161V15.3933C11.8267 15.0803 11.7122 14.7645 11.4731 14.5254C11.234 14.2863 10.9182 14.1718 10.6052 14.1801H1.18334C0.530592 14.1792 0.00156243 14.7082 0.00156243 15.361C0.00156243 16.0137 0.530592 16.5427 1.18334 16.5427H7.78282L0.345939 23.9787C-0.116615 24.4413 -0.116615 25.19 0.345939 25.6516V25.6526Z" fill="#575757"/>
<path d="M14.5254 11.4737C14.7645 11.7129 15.0803 11.8273 15.3933 11.819H24.8161C25.4688 11.819 25.9979 11.29 25.9979 10.6373C25.9979 9.98451 25.4688 9.45548 24.8161 9.45548H18.2166L25.6526 2.01952C26.1151 1.55697 26.1151 0.808201 25.6526 0.34657C25.19 -0.115062 24.4413 -0.115985 23.9796 0.34657L16.5437 7.78253V1.18305C16.5437 0.530299 16.0146 0.00126958 15.3619 0.00126958C14.7091 0.00126958 14.1801 0.530299 14.1801 1.18305V10.6059C14.1718 10.9189 14.2863 11.2346 14.5254 11.4737Z" fill="#575757"/>
</g>
<defs>
<clipPath id="clip0_12328_8796">
<rect width="26" height="26" fill="white"/>
</clipPath>
</defs>
</svg>
