<svg width="26" height="26" viewBox="0 0 26 26" fill="none" xmlns="http://www.w3.org/2000/svg">
<g clip-path="url(#clip0_12328_8824)">
<path d="M25.1517 0.84835C24.5877 0.28439 23.8984 0 23.0886 0H2.91138C2.09677 0 1.41231 0.28439 0.84835 0.84835C0.28439 1.41231 0 2.09677 0 2.91138V23.0886C0 23.9032 0.28439 24.5877 0.84835 25.1517C1.41231 25.7156 2.10159 26 2.91138 26H23.0886C23.9032 26 24.5877 25.7156 25.1517 25.1517C25.7156 24.5877 26 23.8984 26 23.0886V2.91138C26 2.09677 25.7156 1.41231 25.1517 0.84835ZM5.45643 18.9722C4.85873 18.9722 4.37189 18.4854 4.37189 17.8877C4.37189 17.29 4.85873 16.8031 5.45643 16.8031C6.05413 16.8031 6.54097 17.29 6.54097 17.8877C6.54097 18.4854 6.05413 18.9722 5.45643 18.9722ZM5.45643 14.0845C4.85873 14.0845 4.37189 13.5977 4.37189 13C4.37189 12.4023 4.85873 11.9155 5.45643 11.9155C6.05413 11.9155 6.54097 12.4023 6.54097 13C6.54097 13.5977 6.05413 14.0845 5.45643 14.0845ZM5.45643 9.19689C4.85873 9.19689 4.37189 8.71005 4.37189 8.11235C4.37189 7.51465 4.85873 7.02781 5.45643 7.02781C6.05413 7.02781 6.54097 7.51465 6.54097 8.11235C6.54097 8.71005 6.05413 9.19689 5.45643 9.19689ZM20.8087 18.7023H8.75825C8.30515 18.7023 7.93882 18.3359 7.93882 17.8877C7.93882 17.4394 8.30515 17.073 8.75825 17.073H20.8087C21.2618 17.073 21.6281 17.4394 21.6281 17.8877C21.6281 18.3359 21.2618 18.7023 20.8087 18.7023ZM20.8087 13.8146H8.75825C8.30515 13.8146 7.93882 13.4483 7.93882 13C7.93882 12.5517 8.30515 12.1854 8.75825 12.1854H20.8087C21.2618 12.1854 21.6281 12.5517 21.6281 13C21.6281 13.4483 21.2618 13.8146 20.8087 13.8146ZM20.8087 8.92696H8.75825C8.30515 8.92696 7.93882 8.56062 7.93882 8.11235C7.93882 7.66407 8.30515 7.29774 8.75825 7.29774H20.8087C21.2618 7.29774 21.6281 7.66407 21.6281 8.11235C21.6281 8.56062 21.2618 8.92696 20.8087 8.92696Z" fill="#575757"/>
</g>
<defs>
<clipPath id="clip0_12328_8824">
<rect width="26" height="26" fill="white"/>
</clipPath>
</defs>
</svg>
