<svg width="26" height="26" viewBox="0 0 26 26" fill="none" xmlns="http://www.w3.org/2000/svg">
<path d="M25.1517 0.84835C24.5877 0.28439 23.8984 0 23.0886 0H2.91138C2.09677 0 1.41231 0.28439 0.84835 0.84835C0.28439 1.41231 0 2.09677 0 2.91138V23.0886C0 23.9032 0.28439 24.5877 0.84835 25.1517C1.41231 25.7156 2.10159 26 2.91138 26H23.0886C23.9032 26 24.5877 25.7156 25.1517 25.1517C25.7156 24.5877 26 23.8984 26 23.0886V2.91138C26 2.09677 25.7156 1.41231 25.1517 0.84835ZM9.28365 7.84724L12.5758 4.55506C12.6819 4.4442 12.8313 4.37189 13 4.37189C13.1687 4.37189 13.3181 4.4442 13.4242 4.55506L16.7164 7.84724C16.9429 8.07379 16.9429 8.44494 16.7164 8.67149C16.4898 8.89804 16.1187 8.89804 15.8921 8.67149L13.5832 6.36263V11.5636C13.5832 11.8865 13.323 12.1468 13 12.1468C12.677 12.1468 12.4168 11.8865 12.4168 11.5636V6.36263L10.1079 8.67149C9.88135 8.89804 9.5102 8.89804 9.28365 8.67149C9.0571 8.44494 9.0571 8.07379 9.28365 7.84724ZM8.67631 16.7164C8.44976 16.9429 8.07861 16.9429 7.85206 16.7164L4.55988 13.4242C4.44902 13.3181 4.37672 13.1687 4.37672 13C4.37672 12.8313 4.44902 12.6819 4.55988 12.5758L7.85206 9.28365C8.07861 9.0571 8.44976 9.0571 8.67631 9.28365C8.90285 9.5102 8.90285 9.88135 8.67631 10.1079L6.36745 12.4168H11.5684C11.8914 12.4168 12.1516 12.677 12.1516 13C12.1516 13.323 11.8914 13.5832 11.5684 13.5832H6.36745L8.67631 15.8921C8.90285 16.1187 8.90285 16.4898 8.67631 16.7164ZM16.7164 18.1528L13.4242 21.4449C13.3181 21.5558 13.1687 21.6281 13 21.6281C12.8313 21.6281 12.6819 21.5558 12.5758 21.4449L9.28365 18.1528C9.0571 17.9262 9.0571 17.5551 9.28365 17.3285C9.5102 17.102 9.88135 17.102 10.1079 17.3285L12.4168 19.6374V14.4364C12.4168 14.1135 12.677 13.8532 13 13.8532C13.323 13.8532 13.5832 14.1135 13.5832 14.4364V19.6374L15.8921 17.3285C16.1187 17.102 16.4898 17.102 16.7164 17.3285C16.9429 17.5551 16.9429 17.9262 16.7164 18.1528ZM21.4449 13.4242L18.1528 16.7164C17.9262 16.9429 17.5551 16.9429 17.3285 16.7164C17.102 16.4898 17.102 16.1187 17.3285 15.8921L19.6374 13.5832H14.4364C14.1135 13.5832 13.8532 13.323 13.8532 13C13.8532 12.677 14.1135 12.4168 14.4364 12.4168H19.6374L17.3285 10.1079C17.102 9.88135 17.102 9.5102 17.3285 9.28365C17.5551 9.0571 17.9262 9.0571 18.1528 9.28365L21.4449 12.5758C21.5558 12.6819 21.6281 12.8313 21.6281 13C21.6281 13.1687 21.5558 13.3181 21.4449 13.4242Z" fill="#575757"/>
</svg>
